<?xml version="1.0" encoding="UTF-8"?><svg id="a" xmlns="http://www.w3.org/2000/svg" xmlns:xlink="http://www.w3.org/1999/xlink" viewBox="0 0 360 540"><defs><style>.c{fill:none;}.d{fill:#eef3f7;}.e{opacity:.8;}.f{clip-path:url(#b);}</style><clipPath id="b"><rect class="c" width="360" height="540"/></clipPath></defs><g class="f"><g class="e"><path class="d" d="M61.38,447.35c3.13,1.75,5.04,5.92,1.81,10.13-4.71,6.12-8.8,3.36-13.3,.7-2.72-1.61-8.64-4.98-4.75-10.05,3.16-4.1,12.86-2.67,16.24-.78Zm-34.83,34.83c1.74,3.13,5.91,5.04,10.13,1.81,6.12-4.71,3.36-8.8,.7-13.3-1.61-2.72-4.98-8.64-10.04-4.75-4.09,3.15-2.66,12.86-.77,16.24h0Zm25.47-9.41c1.73-1.67,2.83-3.12,1.65-4.3s-3.37-.7-4.96,.99c-1.69,1.6-2.17,3.8-.99,4.96,1.18,1.16,2.63,.08,4.3-1.66h0Zm9.85-39.23c6.22,1.84,10.9,4.48,14.74,8.31,3.78,3.78,5.83,8.3,6.09,13.45,.27,5.23-1.41,9.79-2.86,12.69-3.34,6.69-14.18,17.5-14.64,17.96l-1.47,1.47c-4.83,4.83-10.28,10.14-16.43,13.21-2.9,1.45-7.46,3.12-12.69,2.86-5.14-.26-9.67-2.31-13.45-6.09-3.83-3.83-6.48-8.52-8.31-14.74l-.17-.58c-.26-.89-.53-1.8-.8-2.71-1.86,.84-3.89,1.24-5.93,1.14-8.06-.25-14.19-6.87-13.84-14.77,.06-3.21,1.21-6.3,3.27-8.77,2.06-2.46,4.9-4.15,8.04-4.78,.92-2.65,2.1-5.21,3.5-7.65-.87-1.03-1.41-2.3-1.56-3.64-.14-1.34,.12-2.69,.75-3.88,.63-1.19,1.61-2.16,2.8-2.8,1.19-.63,2.54-.89,3.88-.75-.14-1.33,.12-2.68,.75-3.86,.63-1.18,1.6-2.16,2.78-2.79,1.18-.63,2.53-.9,3.86-.76,1.33,.13,2.6,.66,3.63,1.52,2.44-1.42,5-2.62,7.66-3.56,.66-3.12,2.35-5.92,4.81-7.95,2.46-2.03,5.53-3.17,8.72-3.22,7.9-.35,14.51,5.78,14.77,13.84,.09,2.03-.3,4.05-1.13,5.9,.89,.26,1.78,.52,2.65,.78l.58,.17Zm-35.6-.59c1.69-.96,3.46-1.76,5.3-2.38-.23-.93-.36-1.88-.4-2.83-1.85,.73-3.64,1.6-5.37,2.59,.32,.84,.48,1.73,.46,2.63h0Zm-9.39,2.47c.7,.7,1.65,1.09,2.64,1.09,.99,0,1.94-.39,2.64-1.09s1.09-1.65,1.09-2.64c0-.99-.39-1.94-1.09-2.64-.33-.33-.71-.59-1.14-.78-.8-.35-1.69-.41-2.52-.17-.83,.24-1.56,.76-2.05,1.48-.49,.72-.71,1.58-.63,2.45,.08,.86,.46,1.67,1.07,2.29Zm-7.43,7.43c.66,.66,1.54,1.04,2.47,1.09,.93,.04,1.84-.27,2.55-.86,.71-.6,1.18-1.44,1.3-2.36,.12-.92-.1-1.86-.63-2.62-.53-.76-1.32-1.3-2.23-1.51-.91-.21-1.86-.07-2.67,.39-.81,.46-1.42,1.2-1.71,2.09s-.24,1.84,.15,2.69c.19,.41,.44,.78,.76,1.1h0Zm-2.35,9.09c.93,.04,1.86,.18,2.77,.4,.63-1.86,1.43-3.66,2.4-5.37-.89,.02-1.77-.13-2.59-.44-.99,1.74-1.85,3.54-2.57,5.41h0Zm67.14-7.71c-3.43-3.43-7.66-5.8-13.32-7.47l-.58-.17c-1.19-.35-2.4-.71-3.63-1.06-6.73-1.93-13.9-3.63-20.02-2.77-1.32,.19-2.63,.5-3.89,.92-4.26,1.4-8.47,4.06-12.15,7.74s-6.3,7.87-7.69,12.18c-.42,1.28-.72,2.59-.92,3.92-.87,6.09,.82,13.24,2.74,19.94,.36,1.26,.72,2.49,1.08,3.71l.17,.58c1.67,5.67,4.05,9.9,7.47,13.32,3.18,3.18,6.97,4.9,11.26,5.12,4.51,.23,8.49-1.24,11.03-2.51,5.98-2.98,11.45-8.47,16.29-13.31l.75-.75c.11-.11,10.91-10.88,14.01-17.09,1.26-2.55,2.74-6.52,2.51-11.03-.21-4.29-1.94-8.08-5.12-11.26Zm93.16,60.2c1.36-.44,2.3-.56,2.86,0s.41,1.67-.39,2.47c-.85,.85-2.57,1.31-4.19,1.19l.19,4.17c2.57,.34,4.84-.44,6.71-2.3,2.81-2.81,2.91-6.34,.61-8.64-1.91-1.91-4.17-1.89-7.39-.85l-1.79,.58c-1.07,.34-1.74,.58-2.23,.1-.51-.51-.27-1.28,.39-1.94,.78-.78,1.96-1.04,3.41-1.04l-.02-4c-2.42-.34-4.7,.44-6.37,2.11-2.47,2.47-2.47,5.86-.46,7.87,1.62,1.62,3.92,1.84,7.02,.82l1.65-.53Zm21.09-16.05c.58,3.34-.36,6.03-3.07,8.74-4.09,4.09-9.73,3.73-13.51-.05-3.51-3.51-4.22-9.3-.08-13.44s9.73-3.92,13.8,.15c.29,.29,.41,.46,.7,.75l-10.37,10.37c2.23,1.6,4.75,1.21,6.59-.63,1.38-1.38,1.91-2.69,1.94-4.46l4-1.43Zm-7.92-3.17c-1.94-1.06-4.24-.6-5.96,1.11-1.6,1.6-2.03,3.63-1.04,5.89l7-7Zm5.13-11.96c0-2.32,.75-4.24,2.3-5.79,3.32-3.32,8.84-3.32,12.86,.7s3.88,9.64,.61,12.91c-1.62,1.62-3.39,2.23-5.67,2.28l6.05,6.05-3.22,3.22-17.56-17.56,3.22-3.22,1.41,1.4Zm4.84,5.13c2.32,2.32,5.4,2.3,7.39,.31s1.86-5.11-.34-7.31-5.16-2.45-7.29-.31-2.01,5.06,.24,7.31h0Zm10.66-20.63c0-2.32,.75-4.24,2.3-5.79,3.32-3.32,8.84-3.32,12.86,.7s3.88,9.64,.61,12.91c-1.62,1.62-3.39,2.23-5.67,2.28l6.05,6.05-3.22,3.22-17.56-17.56,3.22-3.22,1.4,1.4Zm4.84,5.13c2.32,2.32,5.4,2.3,7.39,.31s1.86-5.11-.34-7.31-5.16-2.45-7.29-.31-2.01,5.06,.24,7.32h0Zm27.04-16.83c-.02,2.25-.65,4.04-2.28,5.67-3.27,3.27-8.93,3.32-12.88-.63s-4.07-9.49-.73-12.83c1.55-1.55,3.46-2.3,5.79-2.3l-1.4-1.4,3.22-3.22,12.86,12.86-3.22,3.22-1.36-1.36Zm-11.94,1.77c2.2,2.2,5.28,2.37,7.29,.36s2.03-5.04-.31-7.39-5.28-2.28-7.31-.24-1.77,5.16,.34,7.27Zm9.15-21.99l-3.22,3.22,12.86,12.86,3.22-3.22-5.47-5.47c-1.33-1.33-2.52-2.47-2.91-4.17-.29-1.31,.05-2.52,.94-3.42,1.96-1.96,3.8-.56,6.34,1.99l6.08,6.08,3.22-3.22-8.79-8.79c-2.76-2.76-6.42-2.4-8.81,0-1.43,1.43-1.96,3.17-2.16,5.45l-1.31-1.31Zm31.36-8.36c-.02,2.25-.65,4.04-2.28,5.67-3.27,3.27-8.93,3.32-12.88-.63s-4.07-9.49-.73-12.83c1.55-1.55,3.46-2.3,5.79-2.3l-6.36-6.36,3.22-3.22,17.82,17.82-3.22,3.22-1.36-1.36Zm-11.94,1.77c2.2,2.2,5.28,2.37,7.29,.36s2.04-5.04-.31-7.39-5.28-2.28-7.31-.24c-2.13,2.13-1.77,5.16,.34,7.27h0Zm26.95-16.78c-.02,2.25-.65,4.04-2.28,5.67-3.27,3.27-8.94,3.32-12.88-.63s-4.07-9.49-.73-12.83c1.55-1.55,3.46-2.3,5.79-2.3l-1.4-1.4,3.22-3.22,12.86,12.86-3.22,3.22-1.36-1.36Zm-11.94,1.77c2.2,2.2,5.28,2.37,7.29,.36s2.03-5.04-.32-7.38-5.28-2.28-7.31-.24c-2.13,2.13-1.77,5.16,.34,7.27h0Zm156.64,43.16c3.13,1.75,5.04,5.92,1.81,10.13-4.71,6.12-8.8,3.36-13.3,.7-2.72-1.61-8.64-4.98-4.75-10.05,3.16-4.1,12.86-2.67,16.24-.78Zm-34.83,34.83c1.74,3.13,5.91,5.04,10.13,1.81,6.12-4.71,3.36-8.8,.7-13.3-1.61-2.72-4.98-8.64-10.04-4.75-4.09,3.15-2.66,12.86-.77,16.24h0Zm25.47-9.41c1.73-1.67,2.83-3.12,1.65-4.3s-3.37-.7-4.96,.99c-1.69,1.6-2.17,3.8-.99,4.96,1.18,1.16,2.63,.08,4.3-1.66h0Zm9.85-39.23c6.22,1.84,10.9,4.48,14.74,8.31,3.78,3.78,5.83,8.3,6.09,13.45,.27,5.23-1.41,9.79-2.86,12.69-3.34,6.69-14.18,17.5-14.64,17.96l-1.47,1.47c-4.83,4.83-10.28,10.14-16.43,13.21-2.9,1.45-7.46,3.12-12.69,2.86-5.14-.26-9.67-2.31-13.45-6.09-3.83-3.83-6.48-8.52-8.31-14.74l-.17-.58c-.26-.89-.53-1.8-.8-2.71-1.86,.84-3.89,1.24-5.93,1.14-8.06-.25-14.19-6.87-13.84-14.77,.06-3.21,1.21-6.3,3.27-8.77,2.06-2.46,4.9-4.15,8.04-4.78,.92-2.65,2.1-5.21,3.5-7.65-.87-1.03-1.41-2.3-1.56-3.64-.14-1.34,.12-2.69,.75-3.88,.63-1.19,1.61-2.16,2.8-2.8,1.19-.63,2.54-.89,3.88-.75-.14-1.33,.12-2.68,.75-3.86,.63-1.18,1.6-2.16,2.78-2.79,1.18-.63,2.53-.9,3.86-.76,1.33,.13,2.6,.66,3.63,1.52,2.44-1.42,5-2.62,7.66-3.56,.66-3.12,2.35-5.92,4.81-7.95,2.46-2.03,5.53-3.17,8.72-3.22,7.9-.35,14.51,5.78,14.77,13.84,.09,2.03-.3,4.05-1.13,5.9,.89,.26,1.78,.52,2.65,.78l.58,.17Zm-35.6-.59c1.69-.96,3.46-1.76,5.3-2.38-.23-.93-.36-1.88-.4-2.83-1.85,.73-3.64,1.6-5.37,2.59,.32,.84,.48,1.73,.46,2.63h0Zm-9.39,2.47c.7,.7,1.65,1.09,2.64,1.09,.99,0,1.94-.39,2.64-1.09s1.09-1.65,1.09-2.64c0-.99-.39-1.94-1.09-2.64-.33-.33-.71-.59-1.14-.78-.8-.35-1.69-.41-2.52-.17-.83,.24-1.56,.76-2.05,1.48-.49,.72-.71,1.58-.63,2.45,.08,.86,.46,1.67,1.07,2.29Zm-7.43,7.43c.66,.66,1.54,1.04,2.47,1.09,.93,.04,1.84-.27,2.55-.86,.71-.6,1.18-1.44,1.3-2.36,.12-.92-.1-1.86-.63-2.62-.53-.76-1.32-1.3-2.23-1.51-.91-.21-1.86-.07-2.67,.39-.81,.46-1.42,1.2-1.71,2.09s-.24,1.84,.15,2.69c.19,.41,.44,.78,.76,1.1h0Zm-2.35,9.09c.93,.04,1.86,.18,2.77,.4,.63-1.86,1.43-3.66,2.4-5.37-.89,.02-1.77-.13-2.59-.44-.99,1.74-1.85,3.54-2.57,5.41h0Zm67.14-7.71c-3.43-3.43-7.66-5.8-13.32-7.47l-.58-.17c-1.19-.35-2.4-.71-3.63-1.06-6.73-1.93-13.9-3.63-20.02-2.77-1.32,.19-2.63,.5-3.89,.92-4.26,1.4-8.47,4.06-12.15,7.74-3.65,3.65-6.3,7.87-7.69,12.18-.42,1.28-.72,2.59-.92,3.92-.87,6.09,.82,13.24,2.74,19.94,.36,1.26,.72,2.49,1.08,3.71l.17,.58c1.67,5.67,4.05,9.9,7.47,13.32,3.18,3.18,6.97,4.9,11.26,5.12,4.51,.23,8.49-1.24,11.03-2.51,5.98-2.98,11.45-8.47,16.29-13.31l.75-.75c.11-.11,10.91-10.88,14.01-17.09,1.26-2.55,2.74-6.52,2.51-11.03-.21-4.29-1.94-8.08-5.12-11.26ZM47.4,324.4c1.36-.44,2.3-.56,2.86,0s.41,1.67-.39,2.47c-.85,.85-2.57,1.31-4.19,1.19l.19,4.17c2.57,.34,4.84-.44,6.71-2.3,2.81-2.81,2.91-6.34,.61-8.64-1.91-1.91-4.17-1.89-7.39-.85l-1.79,.58c-1.07,.34-1.74,.58-2.23,.1-.51-.51-.27-1.28,.39-1.94,.78-.78,1.96-1.04,3.41-1.04l-.02-4c-2.42-.34-4.7,.44-6.37,2.11-2.47,2.47-2.47,5.86-.46,7.87,1.62,1.62,3.92,1.84,7.02,.82l1.65-.53Zm21.09-16.05c.58,3.34-.36,6.03-3.07,8.74-4.09,4.09-9.73,3.73-13.51-.05-3.51-3.51-4.22-9.3-.08-13.44s9.73-3.92,13.8,.15c.29,.29,.41,.46,.7,.75l-10.37,10.37c2.23,1.6,4.75,1.21,6.59-.63,1.38-1.38,1.91-2.69,1.94-4.46l4-1.43Zm-7.92-3.17c-1.94-1.06-4.24-.6-5.96,1.11-1.6,1.6-2.03,3.63-1.04,5.89l7-7Zm5.13-11.96c0-2.32,.75-4.24,2.3-5.79,3.32-3.32,8.84-3.32,12.86,.7s3.88,9.64,.61,12.91c-1.62,1.62-3.39,2.23-5.67,2.28l6.05,6.05-3.22,3.22-17.56-17.56,3.22-3.22,1.41,1.4Zm4.84,5.13c2.32,2.32,5.4,2.3,7.39,.31s1.86-5.11-.34-7.31-5.16-2.45-7.29-.31-2.01,5.06,.24,7.31h0Zm10.66-20.63c0-2.32,.75-4.24,2.3-5.79,3.32-3.32,8.84-3.32,12.86,.7s3.88,9.64,.61,12.91c-1.62,1.62-3.39,2.23-5.67,2.28l6.05,6.05-3.22,3.22-17.56-17.56,3.22-3.22,1.4,1.4Zm4.84,5.13c2.32,2.32,5.4,2.3,7.39,.31s1.86-5.11-.34-7.31-5.16-2.45-7.29-.31-2.01,5.06,.24,7.32h0Zm27.04-16.83c-.02,2.25-.65,4.04-2.28,5.67-3.27,3.27-8.93,3.32-12.88-.63s-4.07-9.49-.73-12.83c1.55-1.55,3.46-2.3,5.79-2.3l-1.4-1.4,3.22-3.22,12.86,12.86-3.22,3.22-1.36-1.36Zm-11.94,1.77c2.2,2.2,5.28,2.37,7.29,.36s2.03-5.04-.31-7.39-5.28-2.28-7.31-.24-1.77,5.16,.34,7.27Zm9.15-21.99l-3.22,3.22,12.86,12.86,3.22-3.22-5.47-5.47c-1.33-1.33-2.52-2.47-2.91-4.17-.29-1.31,.05-2.52,.94-3.42,1.96-1.96,3.8-.56,6.34,1.99l6.08,6.08,3.22-3.22-8.79-8.79c-2.76-2.76-6.42-2.4-8.81,0-1.43,1.43-1.96,3.17-2.16,5.45l-1.31-1.31Zm31.36-8.36c-.02,2.25-.65,4.04-2.28,5.67-3.27,3.27-8.93,3.32-12.88-.63s-4.07-9.49-.73-12.83c1.55-1.55,3.46-2.3,5.79-2.3l-6.36-6.36,3.22-3.22,17.82,17.82-3.22,3.22-1.36-1.36Zm-11.94,1.77c2.2,2.2,5.28,2.37,7.29,.36s2.04-5.04-.31-7.39-5.28-2.28-7.31-.24c-2.13,2.13-1.77,5.16,.34,7.27h0Zm26.95-16.78c-.02,2.25-.65,4.04-2.28,5.67-3.27,3.27-8.94,3.32-12.88-.63s-4.07-9.49-.73-12.83c1.55-1.55,3.46-2.3,5.79-2.3l-1.4-1.4,3.22-3.22,12.86,12.86-3.22,3.22-1.36-1.36Zm-11.94,1.77c2.2,2.2,5.28,2.37,7.29,.36s2.03-5.04-.32-7.38-5.28-2.28-7.31-.24c-2.13,2.13-1.77,5.16,.34,7.27h0Zm156.64,43.16c3.13,1.75,5.04,5.92,1.81,10.13-4.71,6.12-8.8,3.36-13.3,.7-2.72-1.61-8.64-4.98-4.75-10.05,3.16-4.1,12.86-2.67,16.24-.78Zm-34.83,34.83c1.74,3.13,5.91,5.04,10.13,1.81,6.12-4.71,3.36-8.8,.7-13.3-1.61-2.72-4.98-8.64-10.04-4.75-4.09,3.15-2.66,12.86-.77,16.24h0Zm25.47-9.41c1.73-1.67,2.83-3.12,1.65-4.3s-3.37-.7-4.96,.99c-1.69,1.6-2.17,3.8-.99,4.96,1.18,1.16,2.63,.08,4.3-1.66h0Zm9.85-39.23c6.22,1.84,10.9,4.48,14.74,8.31,3.78,3.78,5.83,8.3,6.09,13.45,.27,5.23-1.41,9.79-2.86,12.69-3.34,6.69-14.18,17.5-14.64,17.96l-1.47,1.47c-4.83,4.83-10.28,10.14-16.43,13.21-2.9,1.45-7.46,3.12-12.69,2.86-5.14-.26-9.67-2.31-13.45-6.09-3.83-3.83-6.48-8.52-8.31-14.74l-.17-.58c-.26-.89-.53-1.8-.8-2.71-1.86,.84-3.89,1.24-5.93,1.14-8.06-.25-14.19-6.87-13.84-14.77,.06-3.21,1.21-6.3,3.27-8.77,2.06-2.46,4.9-4.15,8.04-4.78,.92-2.65,2.1-5.21,3.5-7.65-.87-1.03-1.41-2.3-1.56-3.64-.14-1.34,.12-2.69,.75-3.88,.63-1.19,1.61-2.16,2.8-2.8,1.19-.63,2.54-.89,3.88-.75-.14-1.33,.12-2.68,.75-3.86,.63-1.18,1.6-2.16,2.78-2.79,1.18-.63,2.53-.9,3.86-.76,1.33,.13,2.6,.66,3.63,1.52,2.44-1.42,5-2.62,7.66-3.56,.66-3.12,2.35-5.92,4.81-7.95,2.46-2.03,5.53-3.17,8.72-3.22,7.9-.35,14.51,5.78,14.77,13.84,.09,2.03-.3,4.05-1.13,5.9,.89,.26,1.78,.52,2.65,.78l.58,.17Zm-35.6-.59c1.69-.96,3.46-1.76,5.3-2.38-.23-.93-.36-1.88-.4-2.83-1.85,.73-3.64,1.6-5.37,2.59,.32,.84,.48,1.73,.46,2.63h0Zm-9.39,2.47c.7,.7,1.65,1.09,2.64,1.09,.99,0,1.94-.39,2.64-1.09s1.09-1.65,1.09-2.64c0-.99-.39-1.94-1.09-2.64-.33-.33-.71-.59-1.14-.78-.8-.35-1.69-.41-2.52-.17-.83,.24-1.56,.76-2.05,1.48-.49,.72-.71,1.58-.63,2.45,.08,.86,.46,1.67,1.07,2.29Zm-7.43,7.43c.66,.66,1.54,1.04,2.47,1.09,.93,.04,1.84-.27,2.55-.86,.71-.6,1.18-1.44,1.3-2.36,.12-.92-.1-1.86-.63-2.62-.53-.76-1.32-1.3-2.23-1.51-.91-.21-1.86-.07-2.67,.39-.81,.46-1.42,1.2-1.71,2.09s-.24,1.84,.15,2.69c.19,.41,.44,.78,.76,1.1h0Zm-2.35,9.09c.93,.04,1.86,.18,2.77,.4,.63-1.86,1.43-3.66,2.4-5.37-.89,.02-1.77-.13-2.59-.44-.99,1.74-1.85,3.54-2.57,5.41h0Zm67.14-7.71c-3.43-3.43-7.66-5.8-13.32-7.47l-.58-.17c-1.19-.35-2.4-.71-3.63-1.06-6.73-1.93-13.9-3.63-20.02-2.77-1.32,.19-2.63,.5-3.89,.92-4.26,1.4-8.47,4.06-12.15,7.74s-6.3,7.87-7.69,12.18c-.42,1.28-.72,2.59-.92,3.92-.87,6.09,.82,13.24,2.74,19.94,.36,1.26,.72,2.49,1.08,3.71l.17,.58c1.67,5.67,4.05,9.9,7.47,13.32,3.18,3.18,6.97,4.9,11.26,5.12,4.51,.23,8.49-1.24,11.03-2.51,5.98-2.98,11.45-8.47,16.29-13.31l.75-.75c.11-.11,10.91-10.88,14.01-17.09,1.26-2.55,2.74-6.52,2.51-11.03-.21-4.29-1.94-8.08-5.12-11.26ZM-9.69,65.8l-3.22,3.22L-.05,81.88l3.22-3.22-5.47-5.47c-1.33-1.33-2.52-2.47-2.91-4.17-.29-1.31,.05-2.52,.94-3.42,1.96-1.96,3.8-.56,6.34,1.99l6.08,6.08,3.22-3.22L2.59,61.65c-2.76-2.76-6.42-2.4-8.81,0-1.43,1.43-1.96,3.17-2.16,5.45l-1.31-1.31Zm31.36-8.36c-.02,2.25-.65,4.04-2.28,5.67-3.27,3.27-8.93,3.32-12.88-.63s-4.07-9.49-.73-12.83c1.55-1.55,3.46-2.3,5.79-2.3l-6.36-6.36,3.22-3.22,17.82,17.82-3.22,3.22-1.36-1.36Zm-11.94,1.77c2.2,2.2,5.28,2.37,7.29,.36s2.04-5.04-.31-7.39-5.28-2.28-7.31-.24c-2.13,2.13-1.77,5.16,.34,7.27h0Zm26.95-16.78c-.02,2.25-.65,4.04-2.28,5.67-3.27,3.27-8.94,3.32-12.88-.63s-4.07-9.49-.73-12.83c1.55-1.55,3.46-2.3,5.79-2.3l-1.4-1.4,3.22-3.22,12.86,12.86-3.22,3.22-1.36-1.36Zm-11.94,1.77c2.2,2.2,5.28,2.37,7.29,.36s2.03-5.04-.32-7.38-5.28-2.28-7.31-.24c-2.13,2.13-1.77,5.16,.34,7.27h0Zm156.64,43.16c3.13,1.75,5.04,5.92,1.81,10.13-4.71,6.12-8.8,3.36-13.3,.7-2.72-1.61-8.64-4.98-4.75-10.05,3.16-4.1,12.86-2.67,16.24-.78Zm-34.83,34.83c1.74,3.13,5.91,5.04,10.13,1.81,6.12-4.71,3.36-8.8,.7-13.3-1.61-2.72-4.98-8.64-10.04-4.75-4.09,3.15-2.66,12.86-.77,16.24h0Zm25.47-9.41c1.73-1.67,2.83-3.12,1.65-4.3s-3.37-.7-4.96,.99c-1.69,1.6-2.17,3.8-.99,4.96,1.18,1.16,2.63,.08,4.3-1.66h0Zm9.85-39.23c6.22,1.84,10.9,4.48,14.74,8.31,3.78,3.78,5.83,8.3,6.09,13.45,.27,5.23-1.41,9.79-2.86,12.69-3.34,6.69-14.18,17.5-14.64,17.96l-1.47,1.47c-4.83,4.83-10.28,10.14-16.43,13.21-2.9,1.45-7.46,3.12-12.69,2.86-5.14-.26-9.67-2.31-13.45-6.09-3.83-3.83-6.48-8.52-8.31-14.74l-.17-.58c-.26-.89-.53-1.8-.8-2.71-1.86,.84-3.89,1.24-5.93,1.14-8.06-.25-14.19-6.87-13.84-14.77,.06-3.21,1.21-6.3,3.27-8.77,2.06-2.46,4.9-4.15,8.04-4.78,.92-2.65,2.1-5.21,3.5-7.65-.87-1.03-1.41-2.3-1.56-3.64-.14-1.34,.12-2.69,.75-3.88,.63-1.19,1.61-2.16,2.8-2.8,1.19-.63,2.54-.89,3.88-.75-.14-1.33,.12-2.68,.75-3.86,.63-1.18,1.6-2.16,2.78-2.79,1.18-.63,2.53-.9,3.86-.76,1.33,.13,2.6,.66,3.63,1.52,2.44-1.42,5-2.62,7.66-3.56,.66-3.12,2.35-5.92,4.81-7.95,2.46-2.03,5.53-3.17,8.72-3.22,7.9-.35,14.51,5.78,14.77,13.84,.09,2.03-.3,4.05-1.13,5.9,.89,.26,1.78,.52,2.65,.78l.58,.17Zm-35.6-.59c1.69-.96,3.46-1.76,5.3-2.38-.23-.93-.36-1.88-.4-2.83-1.85,.73-3.64,1.6-5.37,2.59,.32,.84,.48,1.73,.46,2.63h0Zm-9.39,2.47c.7,.7,1.65,1.09,2.64,1.09,.99,0,1.94-.39,2.64-1.09s1.09-1.65,1.09-2.64c0-.99-.39-1.94-1.09-2.64-.33-.33-.71-.59-1.14-.78-.8-.35-1.69-.41-2.52-.17-.83,.24-1.56,.76-2.05,1.48-.49,.72-.71,1.58-.63,2.45,.08,.86,.46,1.67,1.07,2.29Zm-7.43,7.43c.66,.66,1.54,1.04,2.47,1.09,.93,.04,1.84-.27,2.55-.86,.71-.6,1.18-1.44,1.3-2.36,.12-.92-.1-1.86-.63-2.62-.53-.76-1.32-1.3-2.23-1.51-.91-.21-1.86-.07-2.67,.39-.81,.46-1.42,1.2-1.71,2.09s-.24,1.84,.15,2.69c.19,.41,.44,.78,.76,1.1h0Zm-2.35,9.09c.93,.04,1.86,.18,2.77,.4,.63-1.86,1.43-3.66,2.4-5.37-.89,.02-1.77-.13-2.59-.44-.99,1.74-1.85,3.54-2.57,5.41h0Zm67.14-7.71c-3.43-3.43-7.66-5.8-13.32-7.47l-.58-.17c-1.19-.35-2.4-.71-3.63-1.06-6.73-1.93-13.9-3.63-20.02-2.77-1.32,.19-2.63,.5-3.89,.92-4.26,1.4-8.47,4.06-12.15,7.74s-6.3,7.87-7.69,12.18c-.42,1.28-.72,2.59-.92,3.92-.87,6.09,.82,13.24,2.74,19.94,.36,1.26,.72,2.49,1.08,3.71l.17,.58c1.67,5.67,4.05,9.9,7.47,13.32,3.18,3.18,6.97,4.9,11.26,5.12,4.51,.23,8.49-1.24,11.03-2.51,5.98-2.98,11.45-8.47,16.29-13.31l.75-.75c.11-.11,10.91-10.88,14.01-17.09,1.26-2.55,2.74-6.52,2.51-11.03-.21-4.29-1.94-8.08-5.12-11.26Zm93.16,60.2c1.36-.44,2.3-.56,2.86,0s.41,1.67-.39,2.47c-.85,.85-2.57,1.31-4.19,1.19l.19,4.17c2.57,.34,4.84-.44,6.71-2.3,2.81-2.81,2.91-6.34,.61-8.64-1.91-1.91-4.17-1.89-7.39-.85l-1.79,.58c-1.07,.34-1.74,.58-2.23,.1-.51-.51-.27-1.28,.39-1.94,.78-.78,1.96-1.04,3.41-1.04l-.02-4c-2.42-.34-4.7,.44-6.37,2.11-2.47,2.47-2.47,5.86-.46,7.87,1.62,1.62,3.92,1.84,7.02,.82l1.65-.53Zm21.09-16.05c.58,3.34-.36,6.03-3.07,8.74-4.09,4.09-9.73,3.73-13.51-.05-3.51-3.51-4.22-9.3-.08-13.44s9.73-3.92,13.8,.15c.29,.29,.41,.46,.7,.75l-10.37,10.37c2.23,1.6,4.75,1.21,6.59-.63,1.38-1.38,1.91-2.69,1.94-4.46l4-1.43Zm-7.92-3.17c-1.94-1.06-4.24-.6-5.96,1.11-1.6,1.6-2.03,3.63-1.04,5.89l7-7Zm5.13-11.96c0-2.32,.75-4.24,2.3-5.79,3.32-3.32,8.84-3.32,12.86,.7s3.88,9.64,.61,12.91c-1.62,1.62-3.39,2.23-5.67,2.28l6.05,6.05-3.22,3.22-17.56-17.56,3.22-3.22,1.41,1.4Zm4.84,5.13c2.32,2.32,5.4,2.3,7.39,.31s1.86-5.11-.34-7.31-5.16-2.45-7.29-.31-2.01,5.06,.24,7.31h0Zm10.66-20.63c0-2.32,.75-4.24,2.3-5.79,3.32-3.32,8.84-3.32,12.86,.7s3.88,9.64,.61,12.91c-1.62,1.62-3.39,2.23-5.67,2.28l6.05,6.05-3.22,3.22-17.56-17.56,3.22-3.22,1.4,1.4Zm4.84,5.13c2.32,2.32,5.4,2.3,7.39,.31s1.86-5.11-.34-7.31-5.16-2.45-7.29-.31-2.01,5.06,.24,7.32h0Zm27.04-16.83c-.02,2.25-.65,4.04-2.28,5.67-3.27,3.27-8.93,3.32-12.88-.63s-4.07-9.49-.73-12.83c1.55-1.55,3.46-2.3,5.79-2.3l-1.4-1.4,3.22-3.22,12.86,12.86-3.22,3.22-1.36-1.36Zm-11.94,1.77c2.2,2.2,5.28,2.37,7.29,.36s2.03-5.04-.31-7.39-5.28-2.28-7.31-.24-1.77,5.16,.34,7.27Zm9.15-21.99l-3.22,3.22,12.86,12.86,3.22-3.22-5.47-5.47c-1.33-1.33-2.52-2.47-2.91-4.17-.29-1.31,.05-2.52,.94-3.42,1.96-1.96,3.8-.56,6.34,1.99l6.08,6.08,3.22-3.22-8.79-8.79c-2.76-2.76-6.42-2.4-8.81,0-1.43,1.43-1.96,3.17-2.16,5.45l-1.31-1.31Z"/></g></g></svg>