<svg id="レイヤー_1" data-name="レイヤー 1" xmlns="http://www.w3.org/2000/svg" viewBox="0 0 360 540"><defs><clipPath id="clip-path"><path fill="none" d="M0 0h360v540H0z"/></clipPath><style>.cls-4{fill:#35384d}</style></defs><g clip-path="url(#clip-path)" opacity=".04"><path class="cls-4" d="M61.38 447.35c3.13 1.75 5 5.92 1.8 10.13-4.7 6.12-8.79 3.36-13.29.7-2.72-1.61-8.64-5-4.75-10.05 3.16-4.13 12.86-2.67 16.24-.78zm-34.83 34.83c1.75 3.13 5.92 5 10.13 1.8 6.12-4.7 3.36-8.79.7-13.29-1.61-2.72-5-8.64-10.05-4.75-4.09 3.15-2.66 12.85-.77 16.23zM52 472.76c1.73-1.67 2.83-3.11 1.65-4.3s-3.36-.7-5 1-2.17 3.8-1 5 2.64.08 4.3-1.65zm9.84-39.23c6.23 1.84 10.91 4.48 14.74 8.31a20 20 0 016.09 13.45A25.87 25.87 0 0179.84 468c-3.35 6.69-14.18 17.5-14.64 18l-1.48 1.47c-4.83 4.84-10.28 10.14-16.42 13.21a25.87 25.87 0 01-12.69 2.86 20 20 0 01-13.45-6.09 33.26 33.26 0 01-8.31-14.74l-.17-.58c-.27-.89-.53-1.8-.8-2.71A13 13 0 016 480.5a14.31 14.31 0 01-2.54-28.32 44.73 44.73 0 013.51-7.64 6.75 6.75 0 015.87-11.07 6.75 6.75 0 0111-5.9 44.38 44.38 0 017.64-3.57 14.32 14.32 0 0128.29 2.67 12.88 12.88 0 01-1.13 5.9l2.65.78zm-35.6-.59a31.25 31.25 0 015.31-2.39 14.3 14.3 0 01-.4-2.83 42.72 42.72 0 00-5.37 2.58 6.76 6.76 0 01.46 2.63zm-9.38 2.46a3.73 3.73 0 005.27-5.27 3.64 3.64 0 00-1.14-.77 3.72 3.72 0 00-4.13 6zm-7.43 7.43a3.72 3.72 0 103.46-6.27A3.73 3.73 0 008.54 439a3.68 3.68 0 00.15 2.69 3.61 3.61 0 00.76 1.1zm-2.33 9.08a14.47 14.47 0 012.77.41 30.82 30.82 0 012.39-5.38 6.58 6.58 0 01-2.59-.44 41.87 41.87 0 00-2.58 5.41zm67.14-7.71c-3.42-3.43-7.65-5.8-13.32-7.47l-.58-.18-3.63-1.06c-6.73-1.93-13.9-3.63-20-2.76a23.5 23.5 0 00-3.9.91 31.34 31.34 0 00-12.14 7.74A31.09 31.09 0 0013 453.56a24 24 0 00-.91 3.92c-.87 6.09.82 13.24 2.74 19.94.36 1.25.72 2.49 1.08 3.71l.18.57a30 30 0 007.42 13.3 16.76 16.76 0 0011.26 5.12 22.57 22.57 0 0011-2.51c6-3 11.45-8.47 16.29-13.31l.75-.75c.11-.11 10.91-10.88 14-17.09a22.71 22.71 0 002.51-11 16.71 16.71 0 00-5.08-11.26zM165.75 504.93c-3.1 1-5.4.8-7-.83-2-2-2-5.4.46-7.87a7.4 7.4 0 016.37-2.1v4a4.63 4.63 0 00-3.41 1c-.66.65-.9 1.43-.39 1.93s1.16.25 2.23-.09l1.79-.58c3.22-1.05 5.47-1.07 7.39.84 2.3 2.3 2.2 5.84-.61 8.65a7.69 7.69 0 01-6.71 2.3l-.19-4.17a5.75 5.75 0 004.19-1.18 1.8 1.8 0 00.39-2.47c-.56-.56-1.5-.44-2.86 0zM188.49 488.34c.58 3.34-.36 6-3.07 8.74a9.57 9.57 0 01-13.59-13.49c4.07-4.07 9.74-3.92 13.8.15.29.29.42.46.71.75L176 494.85a4.87 4.87 0 006.59-.63 5.85 5.85 0 001.93-4.45zm-7.92-3.17a4.91 4.91 0 00-5.95 1.11 5 5 0 00-1.05 5.89zM185.71 473.21a7.81 7.81 0 012.3-5.79c3.31-3.32 8.83-3.32 12.85.7s3.88 9.64.61 12.91a7.62 7.62 0 01-5.66 2.28l6.05 6.05-3.22 3.22L181.08 475l3.22-3.22zm4.84 5.13c2.32 2.32 5.4 2.3 7.39.31s1.86-5.1-.34-7.31-5.16-2.44-7.29-.31-2 5.06.24 7.31zM201.21 457.71a7.81 7.81 0 012.3-5.79c3.31-3.32 8.83-3.32 12.85.7s3.88 9.64.61 12.91a7.63 7.63 0 01-5.67 2.28l6.06 6.05-3.22 3.22-17.56-17.56 3.22-3.22zm4.84 5.13c2.32 2.32 5.4 2.3 7.38.32s1.87-5.11-.33-7.32-5.16-2.44-7.29-.31-2 5.06.24 7.31zM233.09 446a7.55 7.55 0 01-2.27 5.67c-3.27 3.27-8.94 3.32-12.89-.63s-4.07-9.5-.72-12.84a7.8 7.8 0 015.78-2.3l-1.4-1.4 3.22-3.22 12.86 12.86-3.22 3.22zm-11.93 1.77c2.2 2.21 5.27 2.38 7.29.36s2-5-.32-7.38-5.28-2.28-7.31-.24-1.77 5.17.34 7.27zM231.62 427.1a8.09 8.09 0 012.15-5.45 6 6 0 018.82 0l8.79 8.79-3.23 3.23-6.07-6.08c-2.54-2.54-4.39-3.95-6.35-2a3.6 3.6 0 00-.94 3.42c.39 1.69 1.57 2.83 2.9 4.16l5.48 5.48-3.17 3.23L227.09 429l3.22-3.22zM261.67 417.44a7.58 7.58 0 01-2.28 5.66c-3.27 3.27-8.93 3.32-12.88-.63s-4.07-9.49-.73-12.83a7.81 7.81 0 015.79-2.3L245.2 401l3.22-3.22 17.83 17.83-3.25 3.19zm-11.94 1.77c2.2 2.2 5.28 2.37 7.29.36s2-5-.31-7.39-5.28-2.27-7.32-.24-1.77 5.16.34 7.27zM276.68 402.43a7.5 7.5 0 01-2.28 5.66c-3.27 3.27-8.93 3.32-12.88-.63s-4.07-9.49-.73-12.83a7.81 7.81 0 015.79-2.3l-1.4-1.4 3.22-3.23 12.86 12.86-3.26 3.22zm-11.94 1.76c2.2 2.21 5.28 2.38 7.29.37s2-5-.31-7.39-5.28-2.28-7.32-.24-1.76 5.16.34 7.27zM421.38 447.35c3.13 1.75 5 5.92 1.8 10.13-4.7 6.12-8.79 3.36-13.29.7-2.72-1.61-8.64-5-4.75-10.05 3.16-4.13 12.86-2.67 16.24-.78zm-34.83 34.83c1.75 3.13 5.92 5 10.13 1.8 6.12-4.7 3.36-8.79.7-13.29-1.61-2.72-5-8.64-10.05-4.75-4.09 3.15-2.66 12.85-.77 16.23zm25.45-9.42c1.73-1.67 2.83-3.11 1.65-4.3s-3.36-.7-5 1-2.17 3.8-1 5 2.64.08 4.3-1.65zm9.84-39.23c6.23 1.84 10.91 4.48 14.74 8.31a20 20 0 016.09 13.45 25.87 25.87 0 01-2.83 12.71c-3.35 6.69-14.18 17.5-14.64 18l-1.48 1.47c-4.83 4.84-10.28 10.14-16.42 13.21a25.87 25.87 0 01-12.69 2.86 20 20 0 01-13.45-6.09 33.26 33.26 0 01-8.31-14.74l-.17-.58c-.27-.89-.53-1.8-.8-2.71a13 13 0 01-5.88 1.08 14.31 14.31 0 01-2.54-28.32 44.73 44.73 0 013.51-7.64 6.75 6.75 0 015.87-11.07 6.75 6.75 0 0111-5.9 44.38 44.38 0 017.66-3.56 14.32 14.32 0 0128.29 2.67 12.88 12.88 0 01-1.13 5.9l2.65.78zm-35.6-.59a31.25 31.25 0 015.31-2.39 14.3 14.3 0 01-.4-2.83 42.72 42.72 0 00-5.37 2.58 6.76 6.76 0 01.46 2.63zm-9.38 2.46a3.73 3.73 0 005.27-5.27 3.64 3.64 0 00-1.14-.77 3.72 3.72 0 00-4.13 6zm-7.43 7.43a3.72 3.72 0 103.46-6.27 3.73 3.73 0 00-4.37 2.48 3.68 3.68 0 00.15 2.69 3.61 3.61 0 00.76 1.1zm-2.35 9.08a14.47 14.47 0 012.77.41 30.82 30.82 0 012.39-5.38 6.58 6.58 0 01-2.59-.44 41.87 41.87 0 00-2.58 5.41zm67.14-7.71c-3.42-3.43-7.65-5.8-13.32-7.47l-.58-.18-3.63-1.06c-6.73-1.93-13.9-3.63-20-2.76a23.5 23.5 0 00-3.9.91A33 33 0 00373 453.56a24 24 0 00-.91 3.92c-.87 6.09.82 13.24 2.74 19.94.36 1.25.72 2.49 1.08 3.71l.18.57a30 30 0 007.42 13.3 16.76 16.76 0 0011.26 5.12 22.57 22.57 0 0011-2.51c6-3 11.45-8.47 16.29-13.31l.75-.75c.11-.11 10.91-10.88 14-17.09a22.71 22.71 0 002.51-11 16.71 16.71 0 00-5.08-11.26zM45.75 324.93c-3.1 1-5.4.8-7-.83-2-2-2-5.4.46-7.87a7.4 7.4 0 016.37-2.1v4a4.63 4.63 0 00-3.41 1c-.66.65-.9 1.43-.39 1.93s1.16.25 2.23-.09l1.79-.58c3.22-1.05 5.47-1.07 7.39.84 2.3 2.3 2.2 5.84-.61 8.65a7.69 7.69 0 01-6.71 2.3l-.19-4.17a5.75 5.75 0 004.19-1.18 1.8 1.8 0 00.39-2.47c-.56-.56-1.5-.44-2.86 0zM68.49 308.34c.58 3.34-.36 6-3.07 8.74a9.57 9.57 0 01-13.59-13.49c4.07-4.07 9.74-3.92 13.8.15.29.29.42.46.71.75L56 314.85a4.87 4.87 0 006.59-.63 5.85 5.85 0 001.93-4.45zm-7.92-3.17a4.91 4.91 0 00-6 1.11 5 5 0 00-1 5.89zM65.71 293.21a7.81 7.81 0 012.3-5.79c3.31-3.32 8.83-3.32 12.85.7s3.88 9.64.61 12.91a7.62 7.62 0 01-5.66 2.28l6 6.05-3.22 3.22L61.08 295l3.22-3.22zm4.84 5.13c2.32 2.32 5.4 2.3 7.39.31s1.86-5.1-.34-7.31-5.16-2.44-7.29-.31-2 5.06.24 7.31zM81.21 277.71a7.81 7.81 0 012.3-5.79c3.31-3.32 8.83-3.32 12.85.7s3.88 9.64.61 12.91a7.63 7.63 0 01-5.67 2.28l6.06 6.05-3.22 3.22-17.56-17.56 3.22-3.22zm4.84 5.13c2.32 2.32 5.4 2.3 7.38.32s1.87-5.11-.33-7.32-5.16-2.44-7.29-.31-2 5.06.24 7.31zM113.09 266a7.55 7.55 0 01-2.27 5.67c-3.27 3.27-8.94 3.32-12.89-.63s-4.07-9.5-.72-12.84a7.8 7.8 0 015.78-2.3l-1.4-1.4 3.22-3.22 12.86 12.86-3.22 3.22zm-11.93 1.77c2.2 2.21 5.27 2.38 7.29.36s2-5-.32-7.38-5.28-2.28-7.31-.24-1.77 5.17.34 7.27zM111.62 247.1a8.09 8.09 0 012.15-5.45 6 6 0 018.82 0l8.79 8.79-3.23 3.23-6.07-6.08c-2.54-2.54-4.39-4-6.35-2a3.6 3.6 0 00-.94 3.42c.39 1.69 1.57 2.83 2.9 4.16l5.48 5.48-3.17 3.23L107.09 249l3.22-3.22zM141.67 237.44a7.58 7.58 0 01-2.28 5.66c-3.27 3.27-8.93 3.32-12.88-.63s-4.07-9.49-.73-12.83a7.81 7.81 0 015.79-2.3L125.2 221l3.22-3.22 17.83 17.83-3.25 3.19zm-11.94 1.77c2.2 2.2 5.28 2.37 7.29.36s2-5-.31-7.39-5.28-2.27-7.32-.24-1.77 5.16.34 7.27zM156.68 222.43a7.5 7.5 0 01-2.28 5.66c-3.27 3.27-8.93 3.32-12.88-.63s-4.07-9.49-.73-12.83a7.81 7.81 0 015.79-2.3l-1.4-1.4 3.22-3.23 12.86 12.86-3.26 3.22zm-11.94 1.76c2.2 2.21 5.28 2.38 7.29.37s2-5-.31-7.39-5.28-2.28-7.32-.24-1.76 5.16.34 7.27zM301.38 267.35c3.13 1.75 5 5.92 1.8 10.13-4.7 6.12-8.79 3.36-13.29.7-2.72-1.61-8.64-5-4.75-10.05 3.16-4.13 12.86-2.67 16.24-.78zm-34.83 34.83c1.75 3.13 5.92 5 10.13 1.8 6.12-4.7 3.36-8.79.7-13.29-1.61-2.72-5-8.64-10.05-4.75-4.09 3.15-2.66 12.85-.77 16.23zm25.45-9.42c1.73-1.67 2.83-3.11 1.65-4.3s-3.36-.7-5 1-2.17 3.8-1 5 2.64.08 4.3-1.65zm9.84-39.23c6.23 1.84 10.91 4.48 14.74 8.31a20 20 0 016.09 13.45 25.87 25.87 0 01-2.83 12.71c-3.35 6.69-14.18 17.5-14.64 18l-1.48 1.47c-4.83 4.84-10.28 10.14-16.42 13.21a25.87 25.87 0 01-12.69 2.86 20 20 0 01-13.45-6.09 33.26 33.26 0 01-8.31-14.74l-.17-.58c-.27-.89-.53-1.8-.8-2.71a13 13 0 01-5.88 1.08 14.31 14.31 0 01-2.54-28.32 44.73 44.73 0 013.51-7.64 6.75 6.75 0 015.87-11.07 6.75 6.75 0 0111-5.9 44.38 44.38 0 017.66-3.56 14.32 14.32 0 0128.29 2.67 12.88 12.88 0 01-1.13 5.9l2.65.78zm-35.6-.59a31.25 31.25 0 015.31-2.39 14.3 14.3 0 01-.4-2.83 42.72 42.72 0 00-5.37 2.58 6.76 6.76 0 01.46 2.63zm-9.38 2.46a3.73 3.73 0 005.27-5.27 3.64 3.64 0 00-1.14-.77 3.72 3.72 0 00-4.13 6zm-7.43 7.43a3.72 3.72 0 103.46-6.27 3.73 3.73 0 00-4.37 2.48 3.68 3.68 0 00.15 2.69 3.61 3.61 0 00.76 1.1zm-2.35 9.08a14.47 14.47 0 012.77.41 30.82 30.82 0 012.39-5.38 6.58 6.58 0 01-2.59-.44 41.87 41.87 0 00-2.58 5.41zm67.14-7.71c-3.42-3.43-7.65-5.8-13.32-7.47l-.58-.18-3.63-1.06c-6.73-1.93-13.9-3.63-20-2.76a23.5 23.5 0 00-3.9.91A33 33 0 00253 273.56a24 24 0 00-.91 3.92c-.87 6.09.82 13.24 2.74 19.94.36 1.25.72 2.49 1.08 3.71l.18.57a30 30 0 007.42 13.3 16.76 16.76 0 0011.26 5.12 22.57 22.57 0 0011-2.51c6-3 11.45-8.47 16.29-13.31l.75-.75c.11-.11 10.91-10.88 14-17.09a22.71 22.71 0 002.51-11 16.71 16.71 0 00-5.08-11.26zM-8.38 67.1a8.09 8.09 0 012.15-5.45 6 6 0 018.82 0l8.79 8.79-3.23 3.23-6.07-6.08c-2.54-2.54-4.39-4-6.35-2A3.6 3.6 0 00-5.21 69c.39 1.69 1.57 2.83 2.9 4.16l5.48 5.48L0 81.88-12.91 69l3.22-3.22zM21.67 57.44a7.58 7.58 0 01-2.28 5.66c-3.27 3.27-8.93 3.32-12.88-.63S2.44 53 5.78 49.64a7.81 7.81 0 015.79-2.3L5.2 41l3.22-3.22 17.83 17.8L23 58.8zM9.73 59.21c2.2 2.2 5.28 2.37 7.29.36s2-5-.31-7.39-5.28-2.27-7.32-.24-1.77 5.16.34 7.27zM36.68 42.43a7.5 7.5 0 01-2.28 5.66c-3.27 3.27-8.93 3.32-12.88-.63s-4.07-9.46-.73-12.83a7.81 7.81 0 015.79-2.3l-1.4-1.4 3.22-3.23 12.86 12.86L38 43.78zm-11.94 1.76c2.2 2.21 5.28 2.38 7.29.37s2-5-.31-7.39-5.28-2.28-7.32-.24-1.76 5.16.34 7.27zM181.38 87.35c3.13 1.75 5 5.92 1.8 10.13-4.7 6.12-8.79 3.36-13.29.7-2.72-1.61-8.64-5-4.75-10.05 3.16-4.13 12.86-2.67 16.24-.78zm-34.83 34.83c1.75 3.13 5.92 5 10.13 1.8 6.12-4.7 3.36-8.79.7-13.29-1.61-2.72-5-8.64-10-4.75-4.09 3.15-2.66 12.85-.77 16.23zm25.45-9.42c1.73-1.67 2.83-3.11 1.65-4.3s-3.36-.7-5 1-2.17 3.8-1 5 2.64.08 4.3-1.65zm9.84-39.23c6.23 1.84 10.91 4.48 14.74 8.31a20 20 0 016.09 13.45 25.87 25.87 0 01-2.83 12.71c-3.35 6.69-14.18 17.5-14.64 18l-1.48 1.47c-4.83 4.84-10.28 10.14-16.42 13.21a25.87 25.87 0 01-12.69 2.86 20 20 0 01-13.45-6.09 33.26 33.26 0 01-8.31-14.74l-.17-.58c-.27-.89-.53-1.8-.8-2.71a13 13 0 01-5.88 1.08 14.31 14.31 0 01-2.54-28.32 44.73 44.73 0 013.51-7.64 6.75 6.75 0 015.87-11.07 6.75 6.75 0 0111-5.9 44.38 44.38 0 017.64-3.57 14.32 14.32 0 0128.29 2.67 12.88 12.88 0 01-1.13 5.9l2.65.78zm-35.6-.59a31.25 31.25 0 015.31-2.39 14.3 14.3 0 01-.4-2.83 42.72 42.72 0 00-5.37 2.58 6.76 6.76 0 01.46 2.63zm-9.38 2.46a3.73 3.73 0 005.27-5.27 3.64 3.64 0 00-1.14-.77 3.72 3.72 0 00-4.13 6zm-7.43 7.43a3.72 3.72 0 103.46-6.27 3.73 3.73 0 00-4.35 2.44 3.68 3.68 0 00.15 2.69 3.61 3.61 0 00.76 1.1zm-2.35 9.08a14.47 14.47 0 012.77.41 30.82 30.82 0 012.39-5.38 6.58 6.58 0 01-2.59-.44 41.87 41.87 0 00-2.58 5.41zm67.14-7.71c-3.42-3.43-7.65-5.8-13.32-7.47l-.58-.18-3.63-1.06c-6.73-1.93-13.9-3.63-20-2.76a23.5 23.5 0 00-3.9.91A33 33 0 00133 93.56a24 24 0 00-.91 3.92c-.87 6.09.82 13.24 2.74 19.94.36 1.25.72 2.49 1.08 3.71l.18.57a30 30 0 007.42 13.3 16.76 16.76 0 0011.26 5.12 22.57 22.57 0 0011-2.51c6-3 11.45-8.47 16.29-13.31l.75-.75c.11-.11 10.91-10.88 14-17.09a22.71 22.71 0 002.51-11 16.71 16.71 0 00-5.08-11.26zM285.75 144.93c-3.1 1-5.4.8-7-.83-2-2-2-5.4.46-7.87a7.4 7.4 0 016.37-2.1v4a4.63 4.63 0 00-3.41 1c-.66.65-.9 1.43-.39 1.93s1.16.25 2.23-.09l1.79-.58c3.22-1.05 5.47-1.07 7.39.84 2.3 2.3 2.2 5.84-.61 8.65a7.69 7.69 0 01-6.71 2.3l-.19-4.17a5.75 5.75 0 004.19-1.18 1.8 1.8 0 00.39-2.47c-.56-.56-1.5-.44-2.86 0zM308.49 128.34c.58 3.34-.36 6-3.07 8.74a9.57 9.57 0 01-13.59-13.49c4.07-4.07 9.74-3.92 13.8.15.29.29.42.46.71.75L296 134.85a4.87 4.87 0 006.59-.63 5.85 5.85 0 001.93-4.45zm-7.92-3.17a4.91 4.91 0 00-5.95 1.11 5 5 0 00-1.05 5.89zM305.71 113.21a7.81 7.81 0 012.3-5.79c3.31-3.32 8.83-3.32 12.85.7s3.88 9.64.61 12.91a7.62 7.62 0 01-5.66 2.28l6.05 6.05-3.22 3.22L301.08 115l3.22-3.22zm4.84 5.13c2.32 2.32 5.4 2.3 7.39.31s1.86-5.1-.34-7.31-5.16-2.44-7.29-.31-2 5.06.24 7.31zM321.21 97.71a7.81 7.81 0 012.3-5.79c3.31-3.32 8.83-3.32 12.85.7s3.88 9.64.61 12.91a7.63 7.63 0 01-5.67 2.28l6.06 6-3.22 3.22-17.56-17.51 3.22-3.22zm4.84 5.13c2.32 2.32 5.4 2.3 7.38.32s1.87-5.11-.33-7.32-5.16-2.44-7.29-.31-2 5.06.24 7.31zM353.09 86a7.55 7.55 0 01-2.27 5.67c-3.27 3.27-8.94 3.32-12.89-.63s-4.07-9.5-.72-12.84a7.8 7.8 0 015.78-2.3l-1.4-1.4 3.22-3.22 12.86 12.86-3.22 3.22zm-11.93 1.77c2.2 2.21 5.27 2.38 7.29.36s2-5-.32-7.38-5.28-2.28-7.31-.24-1.77 5.17.34 7.27zM351.62 67.1a8.09 8.09 0 012.15-5.45 6 6 0 018.82 0l8.79 8.79-3.23 3.23-6.07-6.08c-2.54-2.54-4.39-4-6.35-2a3.6 3.6 0 00-.94 3.42c.39 1.69 1.57 2.83 2.9 4.16l5.48 5.48-3.17 3.23L347.09 69l3.22-3.22z"/></g></svg>