<svg width="10" height="113" viewBox="0 0 10 113" fill="none" xmlns="http://www.w3.org/2000/svg">
<path d="M1.49658 20.4375L4.61182 20.4375L8.82812 22.8867L8.82812 21.7749L5.59473 19.9702L5.59473 19.9219L8.82812 18.1226L8.82812 17L4.60107 19.4492L1.49658 19.4492L1.49658 20.4375Z" fill="#D4D9E2"/>
<path d="M5.69141 29.5941L4.62793 29.5941C3.0166 29.5941 2.23242 28.7455 2.23242 27.6337C2.23242 26.5165 3.0166 25.6732 4.62793 25.6732L5.69141 25.6732C7.30811 25.6732 8.09228 26.5165 8.09228 27.6337C8.09228 28.7455 7.3081 29.5941 5.69141 29.5941ZM4.6333 30.5878L5.69141 30.5878C7.77002 30.5878 8.97852 29.433 8.97852 27.6337C8.97852 25.8344 7.77539 24.6796 5.69141 24.6796L4.6333 24.6796C2.55469 24.6796 1.34619 25.8344 1.34619 27.6337C1.34619 29.433 2.55469 30.5878 4.6333 30.5878Z" fill="#D4D9E2"/>
<path d="M2.24316 36.1404C2.24316 35.034 2.93066 34.3304 4.06396 34.3304L8.82812 34.3304L8.82812 33.3421L4.02637 33.3421C2.42041 33.3421 1.34619 34.4539 1.34619 36.1404C1.34619 37.8216 2.42041 38.9388 4.02637 38.9388L8.82812 38.9388L8.82812 37.9451L4.06396 37.9451C2.93066 37.9451 2.24316 37.2415 2.24316 36.1404Z" fill="#D4D9E2"/>
<path d="M8.82812 44.6579L8.82812 41.9831L1.49658 41.9831L1.49658 42.966L4.3916 42.966L4.3916 44.6955L1.49658 46.0437L1.49658 47.1662L4.57959 45.673C4.86963 46.4895 5.62158 47.0373 6.62598 47.0373C7.96338 47.0373 8.82812 46.1188 8.82812 44.6579ZM5.25098 42.966L7.95801 42.966L7.95801 44.529C7.95801 45.4636 7.45849 46.0168 6.57226 46.0168C5.70215 46.0168 5.25098 45.4743 5.25098 44.4914L5.25098 42.966Z" fill="#D4D9E2"/>
<path d="M3.36035 52.9702C2.17871 53.0723 1.34619 54.0713 1.34619 55.6235C1.34619 57.3154 2.22168 58.3735 3.55371 58.3735C4.62256 58.3735 5.22412 57.7451 5.55713 56.4614L5.88476 55.21C6.05127 54.5386 6.40576 54.1787 6.92139 54.1787C7.63574 54.1787 8.12451 54.7964 8.12451 55.7202C8.12451 56.5742 7.71631 57.1543 7.07178 57.2886L7.07178 58.2822C8.18896 58.1694 9 57.1865 9 55.7363C9 54.2432 8.11914 53.1743 6.87305 53.1743C5.89014 53.1743 5.21875 53.8081 4.93408 54.9092L4.60644 56.1821C4.39697 57.0039 4.05859 57.3745 3.47314 57.3745C2.71045 57.3745 2.22168 56.7461 2.22168 55.7256C2.22168 54.7695 2.66748 54.1089 3.36035 53.9692L3.36035 52.9702Z" fill="#D4D9E2"/>
<path d="M1.49658 63.5663L7.94189 63.5663L7.94189 65.7738L8.82812 65.7738L8.82812 60.3651L7.94189 60.3651L7.94189 62.578L1.49658 62.578L1.49658 63.5663Z" fill="#D4D9E2"/>
<path d="M1.49658 67.9588L3.65576 68.6785L3.65576 71.3802L1.49658 72.0999L1.49658 73.1419L8.82812 70.553L8.82812 69.5271L1.49658 66.9329L1.49658 67.9588ZM7.68408 70.0481L4.45605 71.1277L4.45605 68.9363L7.68408 70.0105L7.68408 70.0481Z" fill="#D4D9E2"/>
<path d="M1.49658 77.5075L7.94189 77.5075L7.94189 79.715L8.82812 79.715L8.82812 74.3063L7.94189 74.3063L7.94189 76.5192L1.49658 76.5192L1.49658 77.5075Z" fill="#D4D9E2"/>
<path d="M2.24316 84.8004C2.24316 83.6939 2.93066 82.9903 4.06396 82.9903L8.82812 82.9903L8.82812 82.0021L4.02636 82.0021C2.42041 82.0021 1.34619 83.1139 1.34619 84.8004C1.34619 86.4815 2.42041 87.5987 4.02636 87.5987L8.82812 87.5987L8.82812 86.6051L4.06396 86.6051C2.93066 86.6051 2.24316 85.9015 2.24316 84.8004Z" fill="#D4D9E2"/>
<path d="M3.36035 90.106C2.17871 90.208 1.34619 91.207 1.34619 92.7593C1.34619 94.4512 2.22168 95.5093 3.55371 95.5093C4.62256 95.5093 5.22412 94.8809 5.55713 93.5972L5.88476 92.3457C6.05127 91.6743 6.40576 91.3145 6.92138 91.3145C7.63574 91.3145 8.12451 91.9321 8.12451 92.856C8.12451 93.71 7.71631 94.29 7.07177 94.4243L7.07177 95.418C8.18896 95.3052 9 94.3223 9 92.8721C9 91.3789 8.11914 90.3101 6.87304 90.3101C5.89013 90.3101 5.21875 90.9438 4.93408 92.0449L4.60644 93.3179C4.39697 94.1396 4.05859 94.5103 3.47314 94.5103C2.71045 94.5103 2.22168 93.8818 2.22168 92.8613C2.22168 91.9053 2.66748 91.2446 3.36035 91.105L3.36035 90.106Z" fill="#D4D9E2"/>
<g clip-path="url(#clip0_545_4709)">
<path d="M4.64188 104.265C4.84184 104.644 5.66116 104.822 6.36018 104.453C7.05919 104.084 7.42311 103.402 7.17302 102.928C6.923 102.455 6.15366 102.371 5.45472 102.74C4.75571 103.109 4.44184 103.886 4.64188 104.265Z" fill="#D4D9E2"/>
<path d="M7.17302 112.092C7.42311 111.618 7.05919 110.936 6.36018 110.567C5.66116 110.197 4.84186 110.377 4.64188 110.755C4.44184 111.134 4.75571 111.911 5.45472 112.28C6.15364 112.649 6.923 112.565 7.17302 112.092Z" fill="#D4D9E2"/>
<path d="M6.33527 108.75C6.29941 108.944 6.37654 109.176 6.53668 109.39C6.53736 109.391 6.53796 109.392 6.53859 109.393C6.55896 109.42 6.58078 109.446 6.60375 109.472C6.60695 109.476 6.61007 109.48 6.61336 109.484C6.6358 109.509 6.65937 109.533 6.6841 109.557C6.68806 109.561 6.69195 109.565 6.69601 109.569C6.72171 109.594 6.74865 109.618 6.77673 109.642C6.77939 109.644 6.78199 109.646 6.78466 109.648C7.0047 109.831 7.29173 109.974 7.62306 110.024C8.06884 110.091 8.47961 110.087 8.78701 109.935C8.78783 109.935 8.78877 109.934 8.78961 109.934C8.8189 109.919 8.84699 109.903 8.87429 109.886C8.88025 109.882 8.8865 109.878 8.89238 109.874C8.91556 109.859 8.93769 109.842 8.95929 109.824C8.96714 109.818 8.97525 109.811 8.98279 109.805C9.00293 109.787 9.02201 109.768 9.04054 109.748C9.04734 109.741 9.0542 109.734 9.06076 109.726C9.07976 109.704 9.09769 109.681 9.11486 109.657C9.11882 109.652 9.12263 109.646 9.12646 109.64C9.20627 109.523 9.26625 109.378 9.29951 109.199C9.35252 108.912 9.31224 108.688 9.20543 108.511C9.20054 108.502 9.19589 108.494 9.19062 108.486C9.17841 108.467 9.16529 108.449 9.15156 108.432C9.14423 108.422 9.13652 108.413 9.12867 108.404C9.11402 108.387 9.09884 108.37 9.08275 108.354C9.07572 108.347 9.06826 108.34 9.06099 108.333C8.82341 108.111 8.44568 107.991 8.01173 107.925C7.19312 107.801 6.42111 108.286 6.33527 108.75Z" fill="#D4D9E2"/>
<path d="M8.89246 105.146C8.8865 105.142 8.88017 105.138 8.87406 105.134C8.84683 105.117 8.8189 105.101 8.78969 105.086C8.78869 105.086 8.78769 105.085 8.78678 105.085C8.47939 104.933 8.06877 104.929 7.62306 104.996C7.29164 105.046 7.00455 105.189 6.78451 105.372C6.78197 105.374 6.77939 105.376 6.77687 105.378C6.74865 105.402 6.72164 105.426 6.69578 105.451C6.69189 105.455 6.68816 105.459 6.68441 105.462C6.65955 105.487 6.63566 105.511 6.61316 105.537C6.6101 105.54 6.6072 105.544 6.60416 105.547C6.58095 105.574 6.5589 105.601 6.5384 105.628C6.53801 105.628 6.53771 105.629 6.53724 105.629C6.37674 105.844 6.29937 106.076 6.33531 106.27C6.42113 106.734 7.19316 107.219 8.01172 107.095C8.44574 107.03 8.82363 106.909 9.06113 106.687C9.0683 106.68 9.0757 106.673 9.08265 106.667C9.09883 106.65 9.11408 106.633 9.12881 106.616C9.13658 106.607 9.14414 106.598 9.15138 106.588C9.16527 106.571 9.17846 106.553 9.19068 106.534C9.19588 106.526 9.20053 106.518 9.20533 106.51C9.31215 106.332 9.35258 106.108 9.29949 105.822C9.26631 105.642 9.20625 105.497 9.12644 105.38C9.12263 105.374 9.11875 105.368 9.11484 105.363C9.09769 105.339 9.07974 105.316 9.06082 105.294C9.05418 105.286 9.04732 105.279 9.04053 105.272C9.02199 105.252 9.00291 105.233 8.98285 105.215C8.97523 105.209 8.96705 105.202 8.9592 105.196C8.93762 105.178 8.91556 105.161 8.89246 105.146Z" fill="#D4D9E2"/>
<path d="M3.99098 109.897C4.06223 109.628 4.26562 109.416 4.52441 109.311C5.17842 109.047 5.64648 108.34 5.64648 107.51C5.64648 106.68 5.17842 105.973 4.52441 105.709C4.26562 105.604 4.06223 105.393 3.99098 105.123C3.78269 104.333 3.1357 103.757 2.36941 103.757C1.43474 103.757 0.677069 104.614 0.677069 105.67C0.677069 106.168 0.845154 106.621 1.1207 106.961C1.37926 107.281 1.37926 107.74 1.1207 108.059C0.845213 108.399 0.677069 108.852 0.677069 109.35C0.677068 110.406 1.43474 111.263 2.36941 111.263C3.1357 111.263 3.78269 110.687 3.99098 109.897Z" fill="#D4D9E2"/>
</g>
<g clip-path="url(#clip1_545_4709)">
<path d="M4.64188 1.75494C4.84184 2.1335 5.66116 2.31248 6.36018 1.94346C7.05919 1.57436 7.42311 0.891602 7.17302 0.418418C6.923 -0.0548239 6.15366 -0.139219 5.45472 0.229805C4.75571 0.598926 4.44184 1.37637 4.64188 1.75494Z" fill="#D4D9E2"/>
<path d="M7.17302 9.58162C7.42311 9.10846 7.05919 8.42561 6.36018 8.05658C5.66116 7.68748 4.84186 7.86654 4.64188 8.24512C4.44184 8.62367 4.75571 9.40111 5.45472 9.77016C6.15364 10.1393 6.923 10.0548 7.17302 9.58162Z" fill="#D4D9E2"/>
<path d="M6.33527 6.24007C6.29941 6.4337 6.37654 6.66579 6.53668 6.87987C6.53736 6.88071 6.53796 6.88163 6.53859 6.88255C6.55896 6.90954 6.58078 6.9361 6.60375 6.96243C6.60695 6.96616 6.61007 6.96991 6.61336 6.97364C6.6358 6.99874 6.65937 7.02331 6.6841 7.04749C6.68806 7.05137 6.69195 7.05526 6.69601 7.05917C6.72171 7.08397 6.74865 7.108 6.77673 7.13157C6.77939 7.1338 6.78199 7.13598 6.78466 7.13821C7.0047 7.32063 7.29173 7.46368 7.62306 7.5138C8.06884 7.58126 8.47961 7.5768 8.78701 7.42514C8.78783 7.42469 8.78877 7.42432 8.78961 7.42393C8.8189 7.40936 8.84699 7.39303 8.87429 7.37571C8.88025 7.3719 8.8865 7.36839 8.89238 7.36442C8.91556 7.34891 8.93769 7.3319 8.95929 7.31423C8.96714 7.30774 8.97525 7.30147 8.98279 7.29477C9.00293 7.27716 9.02201 7.258 9.04054 7.23823C9.04734 7.23093 9.0542 7.22374 9.06076 7.2161C9.07976 7.19444 9.09769 7.17139 9.11486 7.14729C9.11882 7.14173 9.12263 7.13616 9.12646 7.13044C9.20627 7.01272 9.26625 6.86821 9.29951 6.68854C9.35252 6.40206 9.31224 6.17798 9.20543 6.00059C9.20054 5.99243 9.19589 5.98413 9.19062 5.9761C9.17841 5.95741 9.16529 5.93934 9.15156 5.92171C9.14423 5.91223 9.13652 5.90292 9.12867 5.89378C9.11402 5.87655 9.09884 5.85975 9.08275 5.84358C9.07572 5.83663 9.06826 5.82993 9.06099 5.82313C8.82341 5.60096 8.44568 5.4805 8.01173 5.41481C7.19312 5.29094 6.42111 5.77633 6.33527 6.24007Z" fill="#D4D9E2"/>
<path d="M8.89246 2.63567C8.8865 2.6317 8.88017 2.62813 8.87406 2.62422C8.84683 2.60699 8.8189 2.59074 8.78969 2.57615C8.78869 2.57571 8.78769 2.57533 8.78678 2.57487C8.47939 2.42326 8.06877 2.41885 7.62306 2.48629C7.29164 2.53641 7.00455 2.67947 6.78451 2.86196C6.78197 2.8641 6.77939 2.86623 6.77687 2.86836C6.74865 2.89201 6.72164 2.91621 6.69578 2.94108C6.69189 2.94481 6.68816 2.94854 6.68441 2.95229C6.65955 2.9767 6.63566 3.00141 6.61316 3.02674C6.6101 3.03018 6.6072 3.03369 6.60416 3.03719C6.58095 3.06373 6.5589 3.09059 6.5384 3.11791C6.53801 3.11836 6.53771 3.11891 6.53724 3.11944C6.37674 3.33367 6.29937 3.56614 6.33531 3.76C6.42113 4.22364 7.19316 4.7091 8.01172 4.58528C8.44574 4.51959 8.82363 4.39897 9.06113 4.17672C9.0683 4.17 9.0757 4.16336 9.08265 4.15651C9.09883 4.14033 9.11408 4.1234 9.12881 4.10616C9.13658 4.09707 9.14414 4.08783 9.15138 4.07846C9.16527 4.06084 9.17846 4.04268 9.19068 4.02391C9.19588 4.0159 9.20053 4.00772 9.20533 3.99957C9.31215 3.82219 9.35258 3.59805 9.29949 3.31157C9.26631 3.1319 9.20625 2.98739 9.12644 2.86965C9.12263 2.86393 9.11875 2.85836 9.11484 2.8528C9.09769 2.82869 9.07974 2.80557 9.06082 2.78391C9.05418 2.77637 9.04732 2.7691 9.04053 2.76178C9.02199 2.74203 9.00291 2.72295 8.98285 2.70533C8.97523 2.69862 8.96705 2.69229 8.9592 2.6858C8.93762 2.66817 8.91556 2.65115 8.89246 2.63567Z" fill="#D4D9E2"/>
<path d="M3.99098 7.38743C4.06223 7.11751 4.26562 6.90603 4.52441 6.80134C5.17842 6.53685 5.64648 5.83036 5.64648 5.00005C5.64648 4.16976 5.17842 3.46319 4.52441 3.19868C4.26562 3.09401 4.06223 2.88253 3.99098 2.61267C3.78269 1.82302 3.1357 1.24731 2.36941 1.24731C1.43474 1.24731 0.677069 2.10386 0.677069 3.16046C0.677069 3.65812 0.845154 4.11122 1.1207 4.45136C1.37926 4.77058 1.37926 5.22956 1.1207 5.54876C0.845213 5.88888 0.677069 6.342 0.677069 6.83958C0.677068 7.89618 1.43474 8.7528 2.36941 8.7528C3.1357 8.7528 3.78269 8.177 3.99098 7.38743Z" fill="#D4D9E2"/>
</g>
<defs>
<clipPath id="clip0_545_4709">
<rect width="10" height="10" fill="white" transform="translate(10 102.51) rotate(90)"/>
</clipPath>
<clipPath id="clip1_545_4709">
<rect width="10" height="10" fill="white" transform="translate(10) rotate(90)"/>
</clipPath>
</defs>
</svg>
