<svg width="13" height="118" viewBox="0 0 13 118" fill="none" xmlns="http://www.w3.org/2000/svg">
<path d="M2.5 22.5771L5.61523 22.5771L9.83154 25.0264L9.83154 23.9146L6.59814 22.1099L6.59814 22.0615L9.83154 20.2622L9.83154 19.1396L5.60449 21.5889L2.5 21.5889L2.5 22.5771Z" fill="#D4D9E2"/>
<path d="M6.69482 31.7338L5.63135 31.7338C4.02002 31.7338 3.23584 30.8852 3.23584 29.7733C3.23584 28.6562 4.02002 27.8129 5.63135 27.8129L6.69482 27.8129C8.31152 27.8129 9.0957 28.6562 9.0957 29.7733C9.0957 30.8852 8.31152 31.7338 6.69482 31.7338ZM5.63672 32.7274L6.69482 32.7274C8.77344 32.7274 9.98193 31.5727 9.98193 29.7733C9.98193 27.974 8.77881 26.8192 6.69482 26.8192L5.63672 26.8192C3.55811 26.8192 2.34961 27.974 2.34961 29.7733C2.34961 31.5727 3.5581 32.7274 5.63672 32.7274Z" fill="#D4D9E2"/>
<path d="M3.24658 38.2801C3.24658 37.1736 3.93408 36.47 5.06738 36.47L9.83154 36.47L9.83154 35.4817L5.02978 35.4817C3.42383 35.4817 2.34961 36.5936 2.34961 38.2801C2.34961 39.9612 3.42383 41.0784 5.02978 41.0784L9.83154 41.0784L9.83154 40.0848L5.06738 40.0848C3.93408 40.0848 3.24658 39.3812 3.24658 38.2801Z" fill="#D4D9E2"/>
<path d="M9.83154 46.7976L9.83154 44.1228L2.5 44.1228L2.5 45.1057L5.39502 45.1057L5.39502 46.8352L2.5 48.1833L2.5 49.3059L5.58301 47.8127C5.87305 48.6291 6.625 49.177 7.62939 49.177C8.9668 49.177 9.83154 48.2585 9.83154 46.7976ZM6.25439 45.1057L8.96142 45.1057L8.96142 46.6687C8.96142 47.6032 8.46191 48.1564 7.57568 48.1564C6.70557 48.1564 6.25439 47.614 6.25439 46.6311L6.25439 45.1057Z" fill="#D4D9E2"/>
<path d="M4.36377 55.1099C3.18213 55.2119 2.34961 56.2109 2.34961 57.7632C2.34961 59.4551 3.2251 60.5132 4.55713 60.5132C5.62597 60.5132 6.22754 59.8848 6.56055 58.6011L6.88818 57.3496C7.05469 56.6782 7.40918 56.3184 7.9248 56.3184C8.63916 56.3184 9.12793 56.936 9.12793 57.8599C9.12793 58.7139 8.71972 59.2939 8.07519 59.4282L8.07519 60.4219C9.19238 60.3091 10.0034 59.3262 10.0034 57.876C10.0034 56.3828 9.12256 55.314 7.87646 55.314C6.89355 55.314 6.22217 55.9478 5.9375 57.0488L5.60986 58.3218C5.40039 59.1436 5.06201 59.5142 4.47656 59.5142C3.71387 59.5142 3.2251 58.8857 3.2251 57.8652C3.2251 56.9092 3.6709 56.2485 4.36377 56.1089L4.36377 55.1099Z" fill="#D4D9E2"/>
<path d="M2.5 65.706L8.94531 65.706L8.94531 67.9135L9.83154 67.9135L9.83154 62.5048L8.94531 62.5048L8.94531 64.7177L2.5 64.7177L2.5 65.706Z" fill="#D4D9E2"/>
<path d="M2.5 70.0984L4.65918 70.8182L4.65918 73.5198L2.5 74.2396L2.5 75.2815L9.83154 72.6927L9.83154 71.6668L2.5 69.0726L2.5 70.0984ZM8.6875 72.1878L5.45947 73.2674L5.45947 71.076L8.6875 72.1502L8.6875 72.1878Z" fill="#D4D9E2"/>
<path d="M2.5 79.6472L8.94531 79.6472L8.94531 81.8547L9.83154 81.8547L9.83154 76.446L8.94531 76.446L8.94531 78.6589L2.5 78.6589L2.5 79.6472Z" fill="#D4D9E2"/>
<path d="M3.24658 86.94C3.24658 85.8336 3.93408 85.13 5.06738 85.13L9.83154 85.13L9.83154 84.1417L5.02978 84.1417C3.42383 84.1417 2.34961 85.2535 2.34961 86.94C2.34961 88.6212 3.42383 89.7384 5.02978 89.7384L9.83154 89.7384L9.83154 88.7447L5.06738 88.7447C3.93408 88.7447 3.24658 88.0411 3.24658 86.94Z" fill="#D4D9E2"/>
<path d="M4.36377 92.2456C3.18213 92.3477 2.34961 93.3467 2.34961 94.8989C2.34961 96.5908 3.22509 97.6489 4.55713 97.6489C5.62597 97.6489 6.22754 97.0205 6.56054 95.7368L6.88818 94.4854C7.05468 93.814 7.40918 93.4541 7.9248 93.4541C8.63916 93.4541 9.12793 94.0718 9.12793 94.9956C9.12793 95.8496 8.71972 96.4297 8.07519 96.564L8.07519 97.5576C9.19238 97.4448 10.0034 96.4619 10.0034 95.0117C10.0034 93.5186 9.12256 92.4497 7.87646 92.4497C6.89355 92.4497 6.22216 93.0835 5.9375 94.1846L5.60986 95.4575C5.40039 96.2793 5.06201 96.6499 4.47656 96.6499C3.71386 96.6499 3.22509 96.0215 3.22509 95.001C3.22509 94.0449 3.6709 93.3843 4.36377 93.2446L4.36377 92.2456Z" fill="#D4D9E2"/>
<g clip-path="url(#clip0_518_5205)">
<path d="M9.95801 6.68232C9.95801 6.68232 6.47479 2.77817 1.38208 6.46638C1.38208 6.46638 6.08323 10.0229 9.95801 6.68232Z" fill="#D4D9E2"/>
<path d="M10.8346 5.81173C10.8346 5.81173 11.7723 1.97244 7.01987 0.000488111C7.01987 0.000488111 6.90363 5.29952 10.8346 5.81173Z" fill="#D4D9E2"/>
<path d="M10.7402 7.4458C10.7402 7.4458 6.8451 8.5607 7.33889 13.3459C7.33889 13.3459 12.1537 10.8594 10.7402 7.4458Z" fill="#D4D9E2"/>
<path d="M8.28055 6.50871C8.10252 6.54247 7.92462 6.56329 7.74672 6.57957C7.6577 6.58905 7.56882 6.59372 7.47981 6.60066L7.21289 6.61401C7.03495 6.62077 6.85701 6.62037 6.67907 6.6128C6.50103 6.604 6.323 6.59692 6.14524 6.59038L5.61141 6.57464L5.07759 6.55515C4.72166 6.5394 4.36573 6.52699 4.00993 6.50817C4.00682 6.50817 4.00383 6.50694 4.00163 6.50474C3.99943 6.50253 3.99819 6.49955 3.99819 6.49643C3.99819 6.49332 3.99943 6.49033 4.00163 6.48813C4.00383 6.48592 4.00682 6.48469 4.00993 6.48469C4.36599 6.466 4.72192 6.45359 5.07759 6.43771L5.61141 6.41836L6.14524 6.40248C6.32318 6.39607 6.50112 6.38864 6.67907 6.38019C6.85701 6.37174 7.03495 6.37134 7.21289 6.37899L7.47981 6.39233C7.56882 6.39941 7.6577 6.40408 7.74672 6.41342C7.92475 6.4297 8.10265 6.45065 8.28055 6.48429C8.28323 6.48486 8.28564 6.48634 8.28737 6.48848C8.2891 6.49062 8.29004 6.49328 8.29004 6.49603C8.29004 6.49878 8.2891 6.50144 8.28737 6.50358C8.28564 6.50572 8.28323 6.5072 8.28055 6.50777L8.28055 6.50871Z" fill="white"/>
<path d="M10.0668 9.01102C10.028 9.1306 9.98121 9.24742 9.92668 9.36068C9.87449 9.47372 9.81697 9.58328 9.75638 9.69085C9.69568 9.79817 9.62884 9.90191 9.5562 10.0015C9.48293 10.101 9.40846 10.1997 9.3376 10.3007L9.12407 10.6036L8.908 10.9044C8.7612 11.1035 8.61787 11.3047 8.46893 11.5017C8.46716 11.5043 8.46442 11.5062 8.46132 11.5068C8.45821 11.5074 8.455 11.5067 8.45238 11.5049C8.44976 11.5032 8.44795 11.5004 8.44735 11.4973C8.44675 11.4942 8.44741 11.491 8.44918 11.4884C8.56662 11.2707 8.6894 11.0564 8.80951 10.8403L8.99288 10.5185L9.17972 10.1983C9.24204 10.0915 9.30076 9.98285 9.36069 9.87489C9.42079 9.7671 9.48715 9.66292 9.5594 9.56287C9.63187 9.46291 9.70741 9.36482 9.78841 9.27033C9.8686 9.17353 9.95528 9.08231 10.0479 8.99728C10.049 8.9962 10.0504 8.99537 10.0519 8.99484C10.0535 8.9943 10.0551 8.99407 10.0567 8.99416C10.0583 8.99425 10.0598 8.99465 10.0613 8.99534C10.0627 8.99604 10.064 8.99701 10.0651 8.99821C10.0665 8.99997 10.0675 9.00211 10.0678 9.00437C10.0681 9.00663 10.0677 9.00894 10.0668 9.01102V9.01102Z" fill="white"/>
<path d="M9.94875 4.17137C9.85366 4.09048 9.76413 4.00327 9.68077 3.91033C9.59683 3.81931 9.51822 3.72469 9.44255 3.62807C9.36723 3.53114 9.29763 3.42989 9.23409 3.32486C9.17083 3.21956 9.10851 3.11359 9.04285 3.01003L8.84573 2.69895L8.65195 2.38572C8.52517 2.17539 8.39558 1.96694 8.2712 1.75487C8.26975 1.75232 8.2693 1.74932 8.26995 1.74646C8.27059 1.74359 8.27229 1.74108 8.2747 1.7394C8.27711 1.73773 8.28007 1.73702 8.28297 1.73741C8.28588 1.7378 8.28854 1.73927 8.29042 1.74153C8.44563 1.93224 8.59564 2.12655 8.74844 2.31886L8.97412 2.60993L9.19686 2.90353C9.27079 3.00136 9.34847 3.09665 9.4248 3.19287C9.50087 3.28911 9.57123 3.38974 9.63553 3.49421C9.69959 3.59898 9.76071 3.70574 9.81663 3.81611C9.87478 3.92653 9.92539 4.04077 9.9681 4.15803C9.96913 4.16107 9.96893 4.1644 9.96753 4.16729C9.96613 4.17019 9.96365 4.17242 9.96063 4.17351C9.95864 4.17422 9.95649 4.17439 9.95441 4.17402C9.95232 4.17365 9.95037 4.17273 9.94875 4.17137V4.17137Z" fill="white"/>
</g>
<g clip-path="url(#clip1_518_5205)">
<path d="M9.95801 111.282C9.95801 111.282 6.47479 107.378 1.38208 111.066C1.38208 111.066 6.08323 114.623 9.95801 111.282Z" fill="#D4D9E2"/>
<path d="M10.8346 110.412C10.8346 110.412 11.7723 106.573 7.01987 104.601C7.01987 104.601 6.90363 109.9 10.8346 110.412Z" fill="#D4D9E2"/>
<path d="M10.7402 112.046C10.7402 112.046 6.8451 113.161 7.33889 117.946C7.33889 117.946 12.1537 115.459 10.7402 112.046Z" fill="#D4D9E2"/>
<path d="M8.28055 111.109C8.10252 111.143 7.92462 111.163 7.74672 111.18C7.6577 111.189 7.56882 111.194 7.47981 111.201L7.21289 111.214C7.03495 111.221 6.85701 111.22 6.67907 111.213C6.50103 111.204 6.323 111.197 6.14524 111.19L5.61141 111.175L5.07759 111.155C4.72166 111.14 4.36573 111.127 4.00993 111.108C4.00682 111.108 4.00383 111.107 4.00163 111.105C3.99943 111.103 3.99819 111.1 3.99819 111.097C3.99819 111.093 3.99943 111.09 4.00163 111.088C4.00383 111.086 4.00682 111.085 4.00993 111.085C4.36599 111.066 4.72192 111.054 5.07759 111.038L5.61141 111.018L6.14524 111.003C6.32318 110.996 6.50112 110.989 6.67907 110.98C6.85701 110.972 7.03495 110.971 7.21289 110.979L7.47981 110.992C7.56882 111 7.6577 111.004 7.74672 111.014C7.92475 111.03 8.10265 111.051 8.28055 111.084C8.28323 111.085 8.28564 111.086 8.28737 111.089C8.2891 111.091 8.29004 111.093 8.29004 111.096C8.29004 111.099 8.2891 111.102 8.28737 111.104C8.28564 111.106 8.28323 111.107 8.28055 111.108L8.28055 111.109Z" fill="white"/>
<path d="M10.0668 113.611C10.028 113.731 9.98121 113.848 9.92668 113.961C9.87449 114.074 9.81697 114.183 9.75638 114.291C9.69568 114.398 9.62884 114.502 9.5562 114.602C9.48293 114.701 9.40846 114.8 9.3376 114.901L9.12407 115.204L8.908 115.504C8.7612 115.704 8.61787 115.905 8.46893 116.102C8.46716 116.104 8.46442 116.106 8.46132 116.107C8.45821 116.107 8.455 116.107 8.45238 116.105C8.44976 116.103 8.44795 116.101 8.44735 116.097C8.44675 116.094 8.44741 116.091 8.44918 116.088C8.56662 115.871 8.6894 115.656 8.80951 115.44L8.99288 115.119L9.17972 114.798C9.24204 114.692 9.30076 114.583 9.36069 114.475C9.42079 114.367 9.48715 114.263 9.5594 114.163C9.63187 114.063 9.70741 113.965 9.78841 113.87C9.8686 113.774 9.95528 113.682 10.0479 113.597C10.049 113.596 10.0504 113.595 10.0519 113.595C10.0535 113.594 10.0551 113.594 10.0567 113.594C10.0583 113.594 10.0598 113.595 10.0613 113.595C10.0627 113.596 10.064 113.597 10.0651 113.598C10.0665 113.6 10.0675 113.602 10.0678 113.604C10.0681 113.607 10.0677 113.609 10.0668 113.611V113.611Z" fill="white"/>
<path d="M9.94875 108.771C9.85366 108.691 9.76413 108.603 9.68077 108.51C9.59683 108.419 9.51822 108.325 9.44255 108.228C9.36723 108.131 9.29763 108.03 9.23409 107.925C9.17083 107.82 9.10851 107.714 9.04285 107.61L8.84573 107.299L8.65195 106.986C8.52517 106.775 8.39558 106.567 8.2712 106.355C8.26975 106.352 8.2693 106.349 8.26995 106.347C8.27059 106.344 8.27229 106.341 8.2747 106.34C8.27711 106.338 8.28007 106.337 8.28297 106.338C8.28588 106.338 8.28854 106.339 8.29042 106.342C8.44563 106.532 8.59564 106.727 8.74844 106.919L8.97412 107.21L9.19686 107.504C9.27079 107.601 9.34847 107.697 9.4248 107.793C9.50087 107.889 9.57123 107.99 9.63553 108.094C9.69959 108.199 9.76071 108.306 9.81663 108.416C9.87478 108.527 9.92539 108.641 9.9681 108.758C9.96913 108.761 9.96893 108.764 9.96753 108.767C9.96613 108.77 9.96365 108.773 9.96063 108.774C9.95864 108.774 9.95649 108.774 9.95441 108.774C9.95232 108.774 9.95037 108.773 9.94875 108.771V108.771Z" fill="white"/>
</g>
<defs>
<clipPath id="clip0_518_5205">
<rect width="13.3461" height="9.61769" fill="white" transform="translate(11) rotate(90)"/>
</clipPath>
<clipPath id="clip1_518_5205">
<rect width="13.3461" height="9.61769" fill="white" transform="translate(11 104.6) rotate(90)"/>
</clipPath>
</defs>
</svg>
