<svg width="19" height="19" fill="none" xmlns="http://www.w3.org/2000/svg"><g clip-path="url(#clip0_613_4419)" fill="#EBEFF5"><path d="M3.334 10.18c.72-.38 1.06-1.936.359-3.264C2.99 5.587 1.694 4.896.795 5.37c-.9.475-1.06 1.937-.358 3.265.701 1.328 2.178 1.924 2.897 1.544zM18.205 5.371c-.899-.475-2.196.216-2.897 1.545-.702 1.328-.362 2.884.358 3.264.719.38 2.196-.216 2.897-1.544.702-1.328.541-2.79-.358-3.265zM11.856 6.963c.368.068.809-.078 1.216-.383a2.794 2.794 0 00.157-.127l.02-.018c.048-.043.095-.088.141-.135l.022-.022a2.983 2.983 0 00.15-.169 3.27 3.27 0 00.714-1.593c.128-.847.12-1.627-.168-2.211l-.003-.005a1.788 1.788 0 00-.091-.161l-.022-.034a1.63 1.63 0 00-.095-.128l-.037-.044a1.575 1.575 0 00-.107-.11l-.043-.038a1.633 1.633 0 00-.162-.125 2.179 2.179 0 00-.84-.329c-.544-.1-.97-.024-1.307.179l-.046.028a1.532 1.532 0 00-.252.205l-.04.041c-.421.452-.65 1.17-.775 1.994-.235 1.555.687 3.022 1.568 3.185zM5.008 2.104l-.022.035a1.824 1.824 0 00-.091.16l-.003.006c-.288.584-.296 1.364-.168 2.211a3.27 3.27 0 00.714 1.594l.012.014c.045.054.09.105.138.154l.021.022c.047.047.094.092.142.135l.02.017c.05.044.101.086.153.125l.003.002c.407.305.849.452 1.217.384.88-.163 1.803-1.63 1.568-3.185-.125-.825-.354-1.543-.776-1.994l-.039-.041a1.656 1.656 0 00-.252-.205L7.6 1.51c-.337-.203-.763-.28-1.307-.179a2.176 2.176 0 00-.872.35c-.045.033-.09.068-.13.104l-.043.038a1.597 1.597 0 00-.107.11c-.013.014-.025.03-.037.045a1.679 1.679 0 00-.095.126zM14.036 11.417c-.513-.135-.915-.522-1.114-1.013C12.42 9.16 11.079 8.272 9.5 8.272s-2.92.889-3.423 2.132c-.198.491-.6.878-1.113 1.013-1.5.396-2.594 1.625-2.594 3.081 0 1.776 1.627 3.216 3.635 3.216.945 0 1.806-.32 2.453-.843a1.66 1.66 0 012.085 0 3.893 3.893 0 002.452.843c2.008 0 3.635-1.44 3.635-3.216 0-1.456-1.094-2.685-2.594-3.08z"/></g><defs><clipPath id="clip0_613_4419"><path fill="#fff" d="M0 0h19v19H0z"/></clipPath></defs></svg>