<svg width="375" height="175" fill="none" xmlns="http://www.w3.org/2000/svg"><path fill-rule="evenodd" clip-rule="evenodd" d="M375 155.48C314.683 168.271 252.128 175 188 175c-64.482 0-127.375-6.804-188-19.733V0h375v155.48z" fill="url(#paint0_linear_518_4433)"/><mask id="a" style="mask-type:alpha" maskUnits="userSpaceOnUse" x="0" y="0" width="375" height="175"><path fill-rule="evenodd" clip-rule="evenodd" d="M375 155.48C314.683 168.271 252.128 175 188 175c-64.482 0-127.375-6.804-188-19.733V0h375v155.48z" fill="url(#paint1_linear_518_4433)"/></mask><g mask="url(#a)"><g filter="url(#filter0_f_518_4433)"><circle cx="382.5" cy="9.5" r="220.5" fill="#FF5487" fill-opacity=".62"/></g><circle cx="-12" cy="-3" r="125" fill="#fff" fill-opacity=".13"/><circle cx="143" cy="-33" r="95" fill="#fff" fill-opacity=".06"/><circle cx="387" cy="195" r="125" fill="#fff" fill-opacity=".13"/></g><defs><linearGradient id="paint0_linear_518_4433" x1="0" y1="158" x2="375" y2="0" gradientUnits="userSpaceOnUse"><stop stop-color="#ECA926"/><stop offset=".836" stop-color="#FC834C"/><stop offset="1" stop-color="#FF7C53"/></linearGradient><linearGradient id="paint1_linear_518_4433" x1="0" y1="154.5" x2="375" y2="0" gradientUnits="userSpaceOnUse"><stop stop-color="#59BEDD"/><stop offset="1" stop-color="#62D1B7"/></linearGradient><filter id="filter0_f_518_4433" x="-238" y="-611" width="1241" height="1241" filterUnits="userSpaceOnUse" color-interpolation-filters="sRGB"><feFlood flood-opacity="0" result="BackgroundImageFix"/><feBlend in="SourceGraphic" in2="BackgroundImageFix" result="shape"/><feGaussianBlur stdDeviation="200" result="effect1_foregroundBlur_518_4433"/></filter></defs></svg>