<svg width="84" height="78" fill="none" xmlns="http://www.w3.org/2000/svg"><g clip-path="url(#clip0_582_4726)"><path d="M66.58 47.578c.979 3.447-.619 7.747-5.883 8.437-7.658 1.003-8.596-3.845-9.897-8.91-.784-3.057-2.583-9.628 3.747-10.46 5.134-.664 10.981 7.21 12.034 10.933zm-49.252 0c-.98 3.447.618 7.747 5.884 8.437 7.658 1.003 8.596-3.845 9.895-8.91.785-3.057 2.584-9.628-3.745-10.46-5.122-.664-10.97 7.21-12.028 10.933h-.006zm24.666 11.35c2.405.046 4.207-.2 4.207-1.87 0-1.671-1.883-2.878-4.207-2.813-2.325-.062-4.22 1.155-4.207 2.812.012 1.657 1.808 1.917 4.213 1.87h-.006zm34.703-20.78c3.099 5.699 4.543 10.877 4.543 16.295 0 5.35-1.749 9.996-5.2 13.82-3.51 3.885-7.916 5.927-10.993 6.954-7.097 2.368-22.402 2.347-23.05 2.346h-2.084c-6.838 0-14.442-.099-20.958-2.272-3.078-1.028-7.483-3.068-10.994-6.954-3.451-3.821-5.202-8.47-5.2-13.82 0-5.418 1.443-10.6 4.543-16.295l.288-.53c.443-.816.896-1.646 1.355-2.482a12.903 12.903 0 01-4.998-3.382c-5.521-5.877-5.18-14.893.652-20.23a14.084 14.084 0 0117.582-1.584 44.611 44.611 0 017.884-2.932 6.75 6.75 0 0111.98-3.672A6.751 6.751 0 0154.01 7.032a44.788 44.788 0 017.932 2.9 14.084 14.084 0 0117.465 1.666c5.832 5.337 6.173 14.353.651 20.23a12.929 12.929 0 01-4.972 3.37c.449.814.89 1.622 1.322 2.423l.288.527zM51.944 12.554a30.773 30.773 0 015.435 2.065 14.005 14.005 0 011.725-2.283 41.822 41.822 0 00-5.625-1.97 6.79 6.79 0 01-1.535 2.18v.008zM43.56 7.66a3.727 3.727 0 107.198-1.354 3.727 3.727 0 00-7.198 1.354zm-10.502 0a3.724 3.724 0 10.239-1.316 3.71 3.71 0 00-.236 1.316h-.003zm-8.088 4.761c.632.69 1.192 1.441 1.674 2.243 1.76-.875 3.6-1.58 5.494-2.107a6.76 6.76 0 01-1.522-2.146 41.248 41.248 0 00-5.643 2.002l-.003.008zm52.936 42.021c0-4.846-1.314-9.514-4.137-14.703l-.288-.532c-.592-1.089-1.196-2.2-1.817-3.318-3.393-6.119-7.26-12.4-12.202-16.114a22.87 22.87 0 00-3.403-2.104c-4.004-2.026-8.864-3.116-14.063-3.116-5.16 0-10.015 1.11-14.05 3.171a23.446 23.446 0 00-3.416 2.12c-4.92 3.695-8.784 9.946-12.16 16.038a317.01 317.01 0 00-1.856 3.391l-.288.53c-2.823 5.19-4.138 9.862-4.138 14.704 0 4.498 1.46 8.396 4.34 11.585 3.03 3.35 6.88 5.127 9.577 6.028 6.331 2.12 14.084 2.11 20.93 2.103h1.06c.16 0 15.412.022 21.99-2.174 2.698-.91 6.55-2.678 9.576-6.028 2.885-3.185 4.345-7.083 4.345-11.58z" fill="#35384D"/></g><defs><clipPath id="clip0_582_4726"><path fill="#fff" transform="translate(0 .897)" d="M0 0h84v76.667H0z"/></clipPath></defs></svg>