<svg width="211" height="141" fill="none" xmlns="http://www.w3.org/2000/svg"><path d="M133.289 52.826c1.108 3.9-.701 8.766-6.658 9.547-8.667 1.135-9.727-4.351-11.2-10.082-.887-3.46-2.923-10.897 4.24-11.837 5.81-.753 12.427 8.159 13.618 12.372zm-55.736 0c-1.11 3.9.699 8.766 6.658 9.547 8.666 1.135 9.727-4.351 11.198-10.082.887-3.46 2.924-10.897-4.239-11.837-5.796-.753-12.414 8.159-13.61 12.372h-.008zm27.912 12.843c2.722.053 4.761-.226 4.761-2.117 0-1.89-2.13-3.256-4.761-3.182-2.63-.07-4.774 1.308-4.761 3.182.014 1.875 2.047 2.17 4.768 2.117h-.007zm39.273-23.515c3.506 6.449 5.141 12.308 5.141 18.44 0 6.054-1.979 11.312-5.885 15.639-3.973 4.398-8.958 6.708-12.441 7.87-8.031 2.68-25.351 2.656-26.084 2.655h-2.358c-7.738 0-16.343-.112-23.718-2.571-3.482-1.164-8.468-3.472-12.44-7.87-3.906-4.324-5.888-9.585-5.886-15.639 0-6.132 1.633-11.996 5.142-18.44l.325-.6c.502-.924 1.015-1.863 1.534-2.81a14.603 14.603 0 01-5.655-3.826c-6.25-6.652-5.863-16.854.737-22.893a15.938 15.938 0 0119.897-1.793 50.484 50.484 0 018.922-3.318 7.639 7.639 0 0113.556-4.156 7.644 7.644 0 0111.849-.02 7.643 7.643 0 011.691 4.12 50.705 50.705 0 018.977 3.281 15.936 15.936 0 0119.764 1.886c6.599 6.04 6.985 16.242.736 22.893a14.628 14.628 0 01-5.626 3.813c.507.922 1.006 1.836 1.496 2.742l.326.597zM116.725 13.19a34.81 34.81 0 016.151 2.338 15.879 15.879 0 011.952-2.585 47.311 47.311 0 00-6.365-2.228 7.684 7.684 0 01-1.738 2.466v.009zm-9.486-5.537a4.218 4.218 0 108.146-1.532 4.217 4.217 0 00-8.146 1.532zm-11.885 0a4.214 4.214 0 10.27-1.49c-.178.476-.268.981-.267 1.49h-.003zm-9.152 5.388c.715.78 1.349 1.63 1.894 2.538a35.162 35.162 0 016.218-2.384 7.655 7.655 0 01-1.723-2.428c-2.18.6-4.315 1.356-6.385 2.265l-.004.009zm59.905 47.553c0-5.484-1.488-10.766-4.682-16.64l-.326-.6c-.67-1.233-1.354-2.49-2.056-3.756-3.839-6.923-8.216-14.032-13.809-18.235a25.84 25.84 0 00-3.851-2.38c-4.531-2.293-10.031-3.527-15.914-3.527-5.84 0-11.334 1.256-15.9 3.588a26.537 26.537 0 00-3.866 2.4c-5.568 4.181-9.94 11.255-13.76 18.15a359.56 359.56 0 00-2.101 3.836l-.326.6c-3.194 5.873-4.682 11.16-4.682 16.64 0 5.09 1.652 9.501 4.912 13.11 3.428 3.791 7.784 5.802 10.837 6.822 7.165 2.399 15.938 2.387 23.685 2.38h1.199c.182 0 17.442.024 24.887-2.461 3.052-1.028 7.412-3.03 10.836-6.821 3.265-3.604 4.917-8.016 4.917-13.106zM6.651 121.205c-3.825-1.935-5.76-4.276-5.76-7.291 0-3.734 3.15-6.884 7.742-6.884a9.729 9.729 0 017.883 3.959l-3.69 3.736c-1.35-1.35-2.7-2.206-4.14-2.206-1.215 0-2.16.496-2.16 1.44 0 .9.857 1.306 2.16 1.981l2.205 1.124c3.96 2.026 6.074 4.095 6.074 7.651 0 4.274-3.374 7.469-8.595 7.469-3.465 0-6.3-1.395-8.37-4.095l3.69-4.049c1.395 1.619 3.428 2.79 4.996 2.79 1.484 0 2.654-.857 2.654-1.935 0-1.028-.99-1.801-2.654-2.655l-2.035-1.035zM43.192 126.919c-2.571 3.645-5.94 5.265-10.98 5.265-7.605 0-12.512-5.579-12.512-12.6 0-6.525 4.725-12.554 12.42-12.554 7.56 0 12.683 5.398 12.683 12.96 0 .54-.045.809-.045 1.349H25.507c.584 3.556 3.285 5.535 6.704 5.535 2.57 0 4.276-.72 5.94-2.339l5.04 2.384zm-4.41-10.305c-.81-2.79-3.376-4.499-6.57-4.499-2.97 0-5.266 1.484-6.436 4.499h13.006zM54.667 110.269c2.16-2.159 4.628-3.239 7.515-3.239 6.17 0 11.294 5.129 11.294 12.6 0 7.335-5.353 12.554-11.429 12.554-3.015 0-5.22-1.08-7.38-3.15v11.251h-5.984v-32.626h5.984v2.61zm-.27 9.27c0 4.321 2.88 7.155 6.57 7.155 3.735 0 6.48-3.014 6.48-7.11 0-3.915-2.519-7.065-6.48-7.065-3.825 0-6.57 2.844-6.57 7.02zM83.467 110.269c2.16-2.159 4.636-3.239 7.515-3.239 6.17 0 11.296 5.129 11.296 12.6 0 7.335-5.356 12.554-11.43 12.554-3.016 0-5.22-1.08-7.381-3.15v11.251h-5.985v-32.626h5.985v2.61zm-.27 9.27c0 4.321 2.88 7.155 6.57 7.155 3.736 0 6.48-3.014 6.48-7.11 0-3.915-2.52-7.065-6.48-7.065-3.826 0-6.57 2.844-6.57 7.02zM123.968 129.034c-2.115 2.07-4.365 3.15-7.38 3.15-6.075 0-11.385-5.219-11.385-12.554 0-7.471 5.039-12.6 11.25-12.6 2.879 0 5.354 1.08 7.515 3.239v-2.61h5.984v23.896h-5.984v-2.521zm-12.736-9.45c0 4.096 2.7 7.11 6.436 7.11 3.69 0 6.569-2.79 6.569-7.155 0-4.185-2.79-7.027-6.569-7.027-3.961.007-6.436 3.157-6.436 7.072zM140.167 110.089c2.295-1.935 4.411-3.059 7.066-3.059 4.456 0 8.19 3.059 8.19 8.189v16.336h-5.986v-11.296c0-4.725-.405-7.74-4.05-7.74-1.664 0-3.105.811-4.05 2.295-1.215 1.935-1.17 4.094-1.17 6.571v10.17h-5.985v-23.896h5.985v2.43zM177.067 129.034c-2.115 2.07-4.365 3.15-7.38 3.15-6.075 0-11.385-5.219-11.385-12.554 0-7.471 5.041-12.6 11.25-12.6 2.881 0 5.355 1.08 7.515 3.239V98.433h5.985v33.122h-5.985v-2.521zm-12.736-9.45c0 4.096 2.701 7.11 6.436 7.11 3.69 0 6.571-2.79 6.571-7.155 0-4.185-2.79-7.027-6.571-7.027-3.959.007-6.436 3.157-6.436 7.072zM204.966 129.034c-2.115 2.07-4.363 3.15-7.379 3.15-6.074 0-11.385-5.219-11.385-12.554 0-7.471 5.04-12.6 11.251-12.6 2.879 0 5.354 1.08 7.513 3.239v-2.61h5.987v23.896h-5.987v-2.521zm-12.733-9.45c0 4.096 2.699 7.11 6.435 7.11 3.69 0 6.569-2.79 6.569-7.155 0-4.185-2.79-7.027-6.569-7.027-3.961.007-6.435 3.157-6.435 7.072z" fill="#35384D"/></svg>