<svg width="84" height="78" viewBox="0 0 84 78" fill="none" xmlns="http://www.w3.org/2000/svg">
<g clip-path="url(#clip0_585_3602)">
<path d="M66.5807 47.5782C67.559 51.0251 65.9613 55.3246 60.6971 56.0151C53.0386 57.0177 52.1011 52.17 50.8002 47.1057C50.0157 44.048 48.2166 37.4769 54.5469 36.6454C59.6809 35.9806 65.5282 43.8557 66.5807 47.5782ZM17.328 47.5782C16.3482 51.0251 17.9459 55.3246 23.2116 56.0151C30.8702 57.0177 31.8076 52.17 33.107 47.1057C33.8915 44.048 35.6906 37.4769 29.3618 36.6454C24.2399 35.9806 18.3912 43.8557 17.3341 47.5782H17.328ZM41.9937 58.9274C44.3987 58.9744 46.2009 58.7275 46.2009 57.0571C46.2009 55.3867 44.3184 54.1796 41.9937 54.2448C39.6691 54.1827 37.7745 55.4003 37.7866 57.0571C37.7987 58.7139 39.5949 58.9744 41.9998 58.9274H41.9937ZM76.6972 38.1478C79.7957 43.8466 81.2405 49.0245 81.2405 54.4432C81.2405 59.7922 79.4913 64.4385 76.0399 68.2624C72.5294 72.1485 68.1239 74.19 65.0466 75.2168C57.9499 77.5853 42.6449 77.5641 41.9968 77.5626H39.9129C33.0752 77.5626 25.4712 77.4642 18.9545 75.291C15.8772 74.2627 11.4717 72.2227 7.96121 68.3366C4.5098 64.5157 2.75911 59.8664 2.76062 54.5174C2.76062 49.0987 4.20389 43.9163 7.30395 38.222L7.59169 37.6919C8.03542 36.8756 8.48824 36.0457 8.94711 35.2098C7.03735 34.4934 5.32463 33.3344 3.94946 31.828C-1.5722 25.9505 -1.23145 16.935 4.60066 11.5981C6.91193 9.36951 9.91526 7.99749 13.113 7.70939C16.3107 7.42129 19.511 8.2344 22.1833 10.014C24.7132 8.79052 27.353 7.80884 30.0675 7.08204C30.1806 5.73883 30.6932 4.46023 31.5393 3.41095C32.3855 2.36166 33.5264 1.58975 34.8152 1.19465C36.1039 0.799556 37.4814 0.79937 38.7703 1.19412C40.0592 1.58886 41.2003 2.36046 42.0467 3.40952C42.8918 2.36824 44.0277 1.6022 45.3099 1.20907C46.592 0.815943 47.9621 0.813532 49.2456 1.20215C50.529 1.59077 51.6677 2.35281 52.5164 3.39111C53.3651 4.42941 53.8853 5.69693 54.0108 7.03206C56.7405 7.74674 59.3965 8.71777 61.9435 9.93222C64.6137 8.1933 67.7947 7.41126 70.9668 7.71384C74.1389 8.01642 77.1147 9.38573 79.408 11.5981C85.2401 16.935 85.5809 25.9505 80.0592 31.828C78.6894 33.3259 76.9861 34.4803 75.0873 35.1976C75.5356 36.0124 75.9763 36.8201 76.4094 37.6207L76.6972 38.1478ZM51.9436 12.5537C53.8165 13.0692 55.6364 13.7608 57.3789 14.6194C57.8744 13.8012 58.4524 13.036 59.1039 12.3356C57.2782 11.5465 55.3986 10.8885 53.4793 10.3669C53.1164 11.1876 52.5945 11.9283 51.9436 12.5461V12.5537ZM43.5612 7.66056C43.5612 8.64903 43.9539 9.59701 44.6528 10.296C45.3518 10.9949 46.2997 11.3876 47.2882 11.3876C48.2767 11.3876 49.2247 10.9949 49.9236 10.296C50.6226 9.59701 51.0153 8.64903 51.0153 7.66056C51.0158 7.19718 50.929 6.73785 50.7593 6.30665C50.4431 5.49791 49.8544 4.82499 49.0949 4.40406C48.3353 3.98314 47.4527 3.84063 46.5993 4.00114C45.7459 4.16166 44.9753 4.61513 44.4206 5.28325C43.866 5.95137 43.562 6.79219 43.5612 7.66056V7.66056ZM33.0585 7.66056C33.0592 8.5901 33.4075 9.48578 34.0349 10.1716C34.6624 10.8574 35.5236 11.2838 36.4494 11.367C37.3753 11.4501 38.2987 11.184 39.0383 10.6209C39.7779 10.0579 40.2802 9.23859 40.4465 8.32404C40.6128 7.4095 40.431 6.46582 39.9369 5.67846C39.4429 4.8911 38.6722 4.31698 37.7764 4.06892C36.8805 3.82085 35.9243 3.91678 35.0956 4.33785C34.2669 4.75892 33.6256 5.47469 33.2978 6.34451C33.14 6.76526 33.06 7.21119 33.0616 7.66056H33.0585ZM24.9714 12.422C25.6027 13.1118 26.1633 13.8632 26.6449 14.6648C28.4056 13.7904 30.2453 13.0851 32.1393 12.5583C31.4963 11.9495 30.9792 11.2204 30.6173 10.4123C28.6903 10.9421 26.8044 11.6112 24.9744 12.4144L24.9714 12.422ZM77.9072 54.4432C77.9072 49.5969 76.5927 44.9294 73.7697 39.7395L73.482 39.2079C72.8899 38.119 72.2856 37.0074 71.6647 35.8897C68.2723 29.7714 64.4044 23.4895 59.4628 19.7761C58.3921 18.9768 57.2535 18.273 56.0599 17.6725C52.0557 15.6462 47.1958 14.5558 41.9968 14.5558C36.8371 14.5558 31.9818 15.6659 27.9473 17.727C26.7498 18.3346 25.6068 19.044 24.5307 19.8473C19.6103 23.5425 15.747 29.7926 12.3713 35.8852C11.7367 37.0271 11.1188 38.1569 10.5146 39.276L10.2268 39.8061C7.4039 44.9961 6.08936 49.6681 6.08936 54.5098C6.08936 59.0077 7.54928 62.9059 10.4297 66.0953C13.4586 69.4452 17.3083 71.2217 20.0056 72.1228C26.3374 74.243 34.0899 74.2324 40.9351 74.2263H41.9952C42.1558 74.2263 57.4077 74.2475 63.9865 72.0516C66.6837 71.1429 70.5364 69.374 73.5623 66.0241C76.4473 62.8392 77.9072 58.941 77.9072 54.4432Z" fill="#D4D9E2"/>
</g>
<defs>
<clipPath id="clip0_585_3602">
<rect width="84" height="76.6671" fill="white" transform="translate(0 0.897095)"/>
</clipPath>
</defs>
</svg>
