<svg width="214" height="42" fill="none" xmlns="http://www.w3.org/2000/svg"><g clip-path="url(#clip0_585_3724)" fill="#D4D9E2"><path d="M35.313 25.673c.518 1.828-.328 4.108-3.12 4.474-4.062.532-4.56-2.039-5.25-4.725-.415-1.62-1.368-5.106 1.988-5.547 2.72-.36 5.82 3.82 6.382 5.798zm-26.12 0c-.519 1.828.327 4.108 3.12 4.474 4.062.532 4.559-2.039 5.248-4.725.416-1.62 1.37-5.106-1.986-5.547-2.72-.36-5.822 3.82-6.382 5.798zm13.08 6.017c1.276.024 2.232-.106 2.232-.993s-.998-1.526-2.231-1.49c-1.233-.034-2.238.612-2.232 1.49.007.878.956 1.017 2.232.993zm18.402-11.021c1.643 3.022 2.409 5.768 2.409 8.642 0 2.836-.928 5.3-2.757 7.328-1.863 2.062-4.2 3.144-5.83 3.688-3.766 1.257-11.878 1.248-12.226 1.248h-1.104c-3.626 0-7.658-.053-11.115-1.204-1.632-.545-3.968-1.627-5.83-3.688-1.83-2.027-2.758-4.492-2.758-7.329 0-2.874.765-5.622 2.41-8.642l.152-.28.719-1.317c-.947-.344-1.847-.934-2.654-1.793-2.929-3.117-2.748-7.899.345-10.73a7.47 7.47 0 019.324-.843 23.624 23.624 0 014.18-1.555 3.58 3.58 0 016.358-1.948 3.581 3.581 0 016.353 1.921c1.446.38 2.853.896 4.202 1.54a7.47 7.47 0 019.262.883c3.094 2.83 3.275 7.612.346 10.729-.803.854-1.696 1.446-2.637 1.786.24.432.471.862.701 1.285l.15.279zM27.547 7.096c.993.273 1.958.64 2.883 1.095.262-.434.569-.84.914-1.21a21.96 21.96 0 00-2.983-1.044 3.6 3.6 0 01-.814 1.155v.004zm-4.446-2.6a1.98 1.98 0 103.959.006 1.98 1.98 0 00-3.96-.005zm-5.57 0a1.976 1.976 0 103.947 0 1.976 1.976 0 00-3.945 0h-.002zm-4.288 2.527c.333.365.63.764.883 1.188.934-.463 1.91-.837 2.914-1.116a3.613 3.613 0 01-.807-1.138c-1.02.282-2.019.638-2.988 1.066h-.002zM41.316 29.31c0-2.57-.697-5.045-2.194-7.798l-.153-.281c-.314-.578-.634-1.167-.963-1.76-1.8-3.243-3.85-6.576-6.47-8.543a12.052 12.052 0 00-1.804-1.116c-2.124-1.074-4.7-1.653-7.458-1.653-2.737 0-5.312.589-7.451 1.682-.635.322-1.241.698-1.812 1.124-2.609 1.96-4.654 5.274-6.449 8.505-.336.606-.663 1.205-.984 1.798l-.153.28c-1.497 2.754-2.194 5.232-2.194 7.8 0 2.385.774 4.452 2.302 6.143 1.606 1.776 3.648 2.72 5.078 3.197 3.358 1.12 7.471 1.12 11.1 1.12h.562c.085 0 8.173.01 11.662-1.154 1.431-.482 3.474-1.42 5.079-3.196 1.528-1.695 2.303-3.762 2.302-6.148zM58.53 23.652c-2.911-1.472-4.383-3.252-4.383-5.547 0-2.842 2.397-5.24 5.89-5.24 2.363 0 4.52 1.062 5.992 3.014l-2.81 2.842c-1.028-1.027-2.055-1.678-3.151-1.678-.925 0-1.644.377-1.644 1.097 0 .684.65.992 1.644 1.506l1.678.857c3.014 1.54 4.623 3.116 4.623 5.82 0 3.254-2.57 5.685-6.54 5.685-2.638 0-4.795-1.061-6.37-3.116l2.81-3.082c1.062 1.233 2.603 2.123 3.801 2.123 1.13 0 2.02-.65 2.02-1.472 0-.788-.753-1.37-2.02-2.02l-1.54-.788zM86.336 28.002c-1.951 2.774-4.52 4.007-8.353 4.007-5.787 0-9.52-4.246-9.52-9.588 0-4.966 3.596-9.558 9.451-9.558 5.754 0 9.657 4.11 9.657 9.863 0 .41-.033.617-.033 1.027h-14.66c.445 2.706 2.5 4.212 5.103 4.212 1.952 0 3.253-.548 4.52-1.781l3.835 1.818zm-3.355-7.842c-.617-2.122-2.57-3.424-5-3.424-2.26 0-4.007 1.13-4.9 3.424h9.9zM95.069 15.331c1.643-1.643 3.527-2.465 5.718-2.465 4.692 0 8.594 3.904 8.594 9.588 0 5.582-4.075 9.558-8.698 9.558-2.294 0-3.972-.822-5.616-2.398v8.562h-4.554V13.345h4.554l.002 1.986zm-.206 7.055c0 3.287 2.192 5.445 5 5.445 2.842 0 4.931-2.295 4.931-5.411 0-2.98-1.918-5.377-4.931-5.377-2.91 0-5 2.158-5 5.343zM116.989 15.331c1.643-1.643 3.526-2.465 5.718-2.465 4.692 0 8.594 3.904 8.594 9.588 0 5.582-4.075 9.558-8.699 9.558-2.294 0-3.972-.822-5.616-2.398v8.562h-4.554V13.345h4.557v1.986zm-.206 7.055c0 3.287 2.192 5.445 5 5.445 2.842 0 4.931-2.295 4.931-5.411 0-2.98-1.918-5.377-4.931-5.377-2.914 0-5.003 2.158-5.003 5.343h.003zM147.805 29.609c-1.606 1.575-3.321 2.397-5.616 2.397-4.623 0-8.664-3.972-8.664-9.557 0-5.685 3.835-9.59 8.561-9.59 2.192 0 4.075.823 5.719 2.466v-1.98h4.555v18.184h-4.555v-1.92zm-9.694-7.19c0 3.117 2.056 5.412 4.9 5.412 2.811 0 4.999-2.123 4.999-5.445 0-3.185-2.123-5.342-4.999-5.342-3.014 0-4.9 2.397-4.9 5.376zM160.133 15.195c1.747-1.473 3.356-2.33 5.377-2.33 3.39 0 6.232 2.33 6.232 6.233v12.431h-4.557v-8.594c0-3.595-.308-5.89-3.081-5.89-1.268 0-2.364.617-3.083 1.747-.924 1.472-.891 3.116-.891 5v7.739h-4.553V13.345h4.553l.003 1.85zM188.215 29.609c-1.607 1.575-3.322 2.397-5.617 2.397-4.623 0-8.663-3.972-8.663-9.557 0-5.685 3.835-9.59 8.56-9.59 2.192 0 4.075.823 5.72 2.466v-9h4.554v25.204h-4.554v-1.92zm-9.692-7.192c0 3.116 2.054 5.411 4.899 5.411 2.811 0 5.001-2.123 5.001-5.444 0-3.186-2.124-5.343-5.001-5.343-3.016.002-4.899 2.4-4.899 5.379v-.003zM209.445 29.609c-1.606 1.575-3.322 2.397-5.616 2.397-4.623 0-8.664-3.972-8.664-9.557 0-5.685 3.835-9.59 8.561-9.59 2.192 0 4.075.823 5.719 2.466v-1.98H214v18.184h-4.555v-1.92zm-9.692-7.192c0 3.116 2.056 5.411 4.9 5.411 2.811 0 4.999-2.123 4.999-5.444 0-3.186-2.123-5.343-4.999-5.343-3.013.003-4.9 2.4-4.9 5.379v-.003z"/></g><defs><clipPath id="clip0_585_3724"><path fill="#fff" transform="translate(0 .914)" d="M0 0h214v40.658H0z"/></clipPath></defs></svg>